<svg xmlns="http://www.w3.org/2000/svg" width="90" height="90" viewBox="0 0 90 90">
  <g id="Grupo_1113602" data-name="Grupo 1113602" transform="translate(-198.027 -1084)">
    <path id="Image_Place_Holder" data-name="Image Place Holder" d="M0,0H90V90H0Z" transform="translate(198.027 1084)" fill="#f1d3f6"/>
    <g id="Grupo_1113601" data-name="Grupo 1113601" transform="translate(211.027 1066)">
      <g id="Grupo_1113599" data-name="Grupo 1113599" transform="translate(0.948 35.94)">
        <g id="Grupo_1113591" data-name="Grupo 1113591">
          <path id="Trazado_917285" data-name="Trazado 917285" d="M70.294,80.642V117.29a.632.632,0,0,1-.632.632H8.132a.632.632,0,0,1-.632-.632V80.642l30.481-1.706Z" transform="translate(-7.5 -74.324)" fill="#726d6a"/>
          <g id="Grupo_1113590" data-name="Grupo 1113590" transform="translate(26.793 42.172)">
            <g id="Grupo_1113589" data-name="Grupo 1113589">
              <path id="Trazado_917286" data-name="Trazado 917286" d="M219.56,376.213h9.208v8.512H219.56Z" transform="translate(-219.56 -376.213)" fill="#726d6a"/>
            </g>
          </g>
          <path id="Trazado_917287" data-name="Trazado 917287" d="M70.294,43.068v5.686H7.5V43.068a.632.632,0,0,1,.632-.632H69.663A.632.632,0,0,1,70.294,43.068Z" transform="translate(-7.5 -42.436)" fill="#f5f8f9"/>
          <path id="Trazado_917288" data-name="Trazado 917288" d="M70.294,118.158v2.906a.632.632,0,0,1-.632.632H8.132a.632.632,0,0,1-.632-.632V84.415l1.856-1.16,1.682,1.16v33.111a.632.632,0,0,0,.632.632Z" transform="translate(-7.5 -78.098)" fill="#68625f"/>
          <path id="Trazado_917289" data-name="Trazado 917289" d="M11.038,42.436v6.317H7.5V43.068a.632.632,0,0,1,.632-.632Z" transform="translate(-7.5 -42.436)" fill="#e8edf2"/>
          <path id="Trazado_917290" data-name="Trazado 917290" d="M198.015,436.3H181.969l-2.7-.232a.632.632,0,0,1-.632-.632,3.561,3.561,0,0,1,3.75-3.841l3.487-.1h8.6a4.169,4.169,0,0,1,4.169,4.169A.632.632,0,0,1,198.015,436.3Z" transform="translate(-157.015 -382.344)" fill="#827e7c"/>
          <path id="Trazado_917291" data-name="Trazado 917291" d="M182.96,431.5a4.169,4.169,0,0,0-4.169,4.169v.632h-3.159a.632.632,0,0,1-.632-.632,4.167,4.167,0,0,1,4.169-4.169Z" transform="translate(-153.837 -382.343)" fill="#726d6a"/>
        </g>
        <path id="Trazado_917292" data-name="Trazado 917292" d="M183.938,190.395l-.53-6.733-4.122-3.558-6.2-3.031c-.053.1,0,.261,0,.377v12.821a.7.7,0,0,0,.323.591l1.742,1.288,7.888,5.032a.717.717,0,0,0,.374.111Z" transform="translate(-152.14 -160.062)" fill="#8795de"/>
        <path id="Trazado_917293" data-name="Trazado 917293" d="M194.019,131.674l-5.42,4.264-5.028,2.326-10.327-6.589a.71.71,0,0,1,.241-.259l9.713-6.2a.7.7,0,0,1,.75,0l9.83,6.2A.71.71,0,0,1,194.019,131.674Z" transform="translate(-152.303 -114.663)" fill="#a2aee6"/>
        <path id="Trazado_917294" data-name="Trazado 917294" d="M265.512,177.406v12.987a.7.7,0,0,1-.326.592l-9.83,6.2a.7.7,0,0,1-.376.108V183.662l10.448-6.589A.692.692,0,0,1,265.512,177.406Z" transform="translate(-223.711 -160.062)" fill="#bec6ed"/>
        <g id="Grupo_1113592" data-name="Grupo 1113592" transform="translate(29.521 8.689)">
          <path id="Trazado_917295" data-name="Trazado 917295" d="M245.463,113.038a1.835,1.835,0,0,1-.05.426,1.79,1.79,0,0,1-1.807,1.322,1.643,1.643,0,0,1-1.713-1.722,1.782,1.782,0,0,1,1.31-1.807,1.833,1.833,0,0,1,2.26,1.782Z" transform="translate(-241.799 -111.206)" fill="#e8edf2"/>
          <path id="Trazado_917296" data-name="Trazado 917296" d="M244.762,113.814a1.833,1.833,0,1,1-2.21-2.208,1.833,1.833,0,0,0,1.782,2.259A1.787,1.787,0,0,0,244.762,113.814Z" transform="translate(-241.147 -111.555)" fill="#d9e7ec"/>
        </g>
        <g id="Grupo_1113593" data-name="Grupo 1113593" transform="translate(29.521 21.851)">
          <path id="Trazado_917297" data-name="Trazado 917297" d="M245.464,217.214a1.834,1.834,0,0,1-.05.426,1.79,1.79,0,0,1-1.807,1.322,1.643,1.643,0,0,1-1.713-1.722,1.782,1.782,0,0,1,1.31-1.807,1.834,1.834,0,0,1,2.26,1.782Z" transform="translate(-241.8 -215.382)" fill="#e8edf2"/>
          <path id="Trazado_917298" data-name="Trazado 917298" d="M244.763,217.99a1.833,1.833,0,1,1-2.21-2.208,1.833,1.833,0,0,0,1.782,2.259A1.786,1.786,0,0,0,244.763,217.99Z" transform="translate(-241.148 -215.731)" fill="#d9e7ec"/>
        </g>
        <g id="Grupo_1113594" data-name="Grupo 1113594" transform="translate(19.179 15.27)">
          <path id="Trazado_917299" data-name="Trazado 917299" d="M163.612,165.126a1.834,1.834,0,0,1-.05.426,1.79,1.79,0,0,1-1.807,1.322,1.643,1.643,0,0,1-1.713-1.722,1.782,1.782,0,0,1,1.31-1.807,1.833,1.833,0,0,1,2.26,1.782Z" transform="translate(-159.948 -163.294)" fill="#e8edf2"/>
          <path id="Trazado_917300" data-name="Trazado 917300" d="M162.911,165.9a1.833,1.833,0,1,1-2.21-2.208,1.833,1.833,0,0,0,1.782,2.259A1.787,1.787,0,0,0,162.911,165.9Z" transform="translate(-159.296 -163.643)" fill="#d9e7ec"/>
        </g>
        <g id="Grupo_1113595" data-name="Grupo 1113595" transform="translate(19.179 28.85)">
          <path id="Trazado_917301" data-name="Trazado 917301" d="M163.612,272.609a1.834,1.834,0,0,1-.05.426,1.79,1.79,0,0,1-1.807,1.322,1.643,1.643,0,0,1-1.713-1.722,1.782,1.782,0,0,1,1.31-1.807,1.833,1.833,0,0,1,2.26,1.782Z" transform="translate(-159.948 -270.777)" fill="#e8edf2"/>
          <path id="Trazado_917302" data-name="Trazado 917302" d="M162.911,273.385a1.833,1.833,0,1,1-2.21-2.208,1.833,1.833,0,0,0,1.782,2.259,1.788,1.788,0,0,0,.428-.052Z" transform="translate(-159.296 -271.126)" fill="#d9e7ec"/>
        </g>
        <g id="Grupo_1113596" data-name="Grupo 1113596" transform="translate(29.521 35.431)">
          <path id="Trazado_917303" data-name="Trazado 917303" d="M245.464,324.7a1.834,1.834,0,0,1-.05.426,1.79,1.79,0,0,1-1.807,1.322,1.643,1.643,0,0,1-1.713-1.723,1.782,1.782,0,0,1,1.31-1.807,1.833,1.833,0,0,1,2.26,1.782Z" transform="translate(-241.8 -322.865)" fill="#e8edf2"/>
          <path id="Trazado_917304" data-name="Trazado 917304" d="M244.763,325.472a1.833,1.833,0,1,1-2.21-2.208,1.833,1.833,0,0,0,1.782,2.259A1.781,1.781,0,0,0,244.763,325.472Z" transform="translate(-241.148 -323.214)" fill="#d9e7ec"/>
        </g>
        <g id="Grupo_1113597" data-name="Grupo 1113597" transform="translate(39.967 28.85)">
          <path id="Trazado_917305" data-name="Trazado 917305" d="M328.143,272.609a1.835,1.835,0,0,1-.05.426,1.79,1.79,0,0,1-1.807,1.322,1.643,1.643,0,0,1-1.713-1.722,1.782,1.782,0,0,1,1.31-1.807,1.833,1.833,0,0,1,2.26,1.782Z" transform="translate(-324.479 -270.777)" fill="#e8edf2"/>
          <path id="Trazado_917306" data-name="Trazado 917306" d="M327.443,273.385a1.833,1.833,0,1,1-2.21-2.208,1.833,1.833,0,0,0,1.782,2.259,1.788,1.788,0,0,0,.428-.052Z" transform="translate(-323.828 -271.126)" fill="#d9e7ec"/>
        </g>
        <g id="Grupo_1113598" data-name="Grupo 1113598" transform="translate(39.967 15.27)">
          <path id="Trazado_917307" data-name="Trazado 917307" d="M328.143,165.126a1.835,1.835,0,0,1-.05.426,1.79,1.79,0,0,1-1.807,1.322,1.643,1.643,0,0,1-1.713-1.722,1.782,1.782,0,0,1,1.31-1.807,1.833,1.833,0,0,1,2.26,1.782Z" transform="translate(-324.479 -163.294)" fill="#e8edf2"/>
          <path id="Trazado_917308" data-name="Trazado 917308" d="M327.443,165.9a1.833,1.833,0,1,1-2.21-2.208,1.833,1.833,0,0,0,1.782,2.259A1.787,1.787,0,0,0,327.443,165.9Z" transform="translate(-323.828 -163.643)" fill="#d9e7ec"/>
        </g>
      </g>
      <g id="Grupo_1113600" data-name="Grupo 1113600" transform="translate(0 35)">
        <path id="Trazado_917309" data-name="Trazado 917309" d="M47.248,255.795l-1.674,1.674H38.938a.948.948,0,0,0,0,1.9h7.029a.948.948,0,0,0,.67-.277l1.952-1.952a.948.948,0,0,0-1.34-1.34Z" transform="translate(-33.19 -227.656)"/>
        <path id="Trazado_917310" data-name="Trazado 917310" d="M45.35,299.914a.948.948,0,0,0-.948-.948H38.938a.948.948,0,0,0,0,1.9H44.4A.948.948,0,0,0,45.35,299.914Z" transform="translate(-33.19 -265.615)"/>
        <path id="Trazado_917311" data-name="Trazado 917311" d="M40.406,326.966a.948.948,0,1,0,0,1.9h3.043a.948.948,0,1,0,0-1.9Z" transform="translate(-34.473 -290.077)"/>
        <path id="Trazado_917312" data-name="Trazado 917312" d="M63.11,35H1.579A1.581,1.581,0,0,0,0,36.579V78.905a1.581,1.581,0,0,0,1.579,1.579H13.514a.948.948,0,0,0,0-1.9H1.9V42.956h28.7a.948.948,0,1,0,0-1.9H1.9V36.9h60.9v4.165H35.087a.948.948,0,1,0,0,1.9H62.794V58.625a.948.948,0,1,0,1.9,0V36.579A1.581,1.581,0,0,0,63.11,35Z" transform="translate(0 -35)"/>
        <path id="Trazado_917313" data-name="Trazado 917313" d="M183.2,250.5a.948.948,0,0,0-.948.948v15.414H137.678a.948.948,0,1,0,0,1.9h8.57v3.664h-.513a5.123,5.123,0,0,0-5.117,5.117,1.582,1.582,0,0,0,1.579,1.579h5.712a.948.948,0,0,0,0-1.9h-5.381a3.227,3.227,0,0,1,3.207-2.906h12.129a3.226,3.226,0,0,1,3.207,2.906h-8.739a.948.948,0,1,0,0,1.9h9.07a1.582,1.582,0,0,0,1.579-1.579,5.123,5.123,0,0,0-5.117-5.117h-.513v-3.664h25.214a1.582,1.582,0,0,0,1.579-1.579v-15.73A.948.948,0,0,0,183.2,250.5Zm-27.741,21.921h-7.313v-3.664h7.313Z" transform="translate(-119.455 -223.272)"/>
        <path id="Trazado_917314" data-name="Trazado 917314" d="M70.419,59a.948.948,0,1,0,.949.948A.947.947,0,0,0,70.419,59Z" transform="translate(-60.694 -55.968)"/>
        <path id="Trazado_917315" data-name="Trazado 917315" d="M100.419,59a.948.948,0,1,0,.949.948.947.947,0,0,0-.949-.948Z" transform="translate(-86.904 -55.968)"/>
        <path id="Trazado_917316" data-name="Trazado 917316" d="M40.419,59a.948.948,0,1,0,.949.948A.947.947,0,0,0,40.419,59Z" transform="translate(-34.485 -55.968)"/>
        <path id="Trazado_917317" data-name="Trazado 917317" d="M175.641,130.836V122.6a2.845,2.845,0,1,0-2.746-4.891l-5.912-3.725a2.8,2.8,0,0,0,.077-.656,2.847,2.847,0,1,0-5.615.67l-5.814,3.707a2.845,2.845,0,1,0-2.724,4.9v8.229a2.845,2.845,0,1,0,2.61,4.987l5.9,3.76a2.793,2.793,0,0,0-.051.528,2.847,2.847,0,1,0,5.648-.514l6-3.776a2.846,2.846,0,1,0,2.632-4.979Zm-11.427-18.46a.951.951,0,1,1-.953.95A.953.953,0,0,1,164.215,112.375Zm-7.585,6.938,5.852-3.731a2.838,2.838,0,0,0,3.475-.008l5.945,3.745a2.813,2.813,0,0,0-.063.6,2.847,2.847,0,0,0,.08.668l-5.905,3.72a2.837,2.837,0,0,0-3.59-.006l-5.809-3.707a2.858,2.858,0,0,0,.016-1.279Zm8.536,7.194a.95.95,0,1,1-.95-.95A.95.95,0,0,1,165.166,126.507Zm-11.318,7.959a.95.95,0,1,1,.951-.95A.952.952,0,0,1,153.848,134.466Zm0-13.6a.95.95,0,1,1,.951-.95A.953.953,0,0,1,153.848,120.867Zm2.748,13.39a2.816,2.816,0,0,0,.1-.742,2.848,2.848,0,0,0-1.891-2.68V122.6a2.848,2.848,0,0,0,.771-.419l5.856,3.736a2.84,2.84,0,0,0,1.836,3.275v8.235a2.861,2.861,0,0,0-.893.515Zm7.619,6.8a.95.95,0,1,1,.951-.95A.952.952,0,0,1,164.215,141.056Zm7.624-7.54a2.831,2.831,0,0,0,.1.737l-5.869,3.7a2.821,2.821,0,0,0-.906-.524v-8.233a2.852,2.852,0,0,0,1.9-2.684,2.82,2.82,0,0,0-.061-.585l5.953-3.749a2.859,2.859,0,0,0,.792.428v8.229A2.848,2.848,0,0,0,171.838,133.516Zm2.847.95a.95.95,0,1,1,.953-.95A.952.952,0,0,1,174.685,134.466Zm0-13.6a.95.95,0,1,1,.953-.95A.953.953,0,0,1,174.685,120.867Z" transform="translate(-131.922 -100.943)"/>
        <path id="Trazado_917318" data-name="Trazado 917318" d="M46.637,192.28a.948.948,0,0,0-.67-.277H38.938a.948.948,0,0,0,0,1.9h6.636l1.674,1.674a.948.948,0,0,0,1.34-1.34Z" transform="translate(-33.19 -172.166)"/>
        <path id="Trazado_917319" data-name="Trazado 917319" d="M38.938,165.9H44.4a.948.948,0,1,0,0-1.9H38.938a.948.948,0,0,0,0,1.9Z" transform="translate(-33.19 -147.704)"/>
        <path id="Trazado_917320" data-name="Trazado 917320" d="M40.406,137.9h3.043a.948.948,0,0,0,0-1.9H40.406a.948.948,0,1,0,0,1.9Z" transform="translate(-34.473 -123.242)"/>
        <path id="Trazado_917321" data-name="Trazado 917321" d="M388.207,257.134l1.952,1.952a.948.948,0,0,0,.67.277h7.029a.948.948,0,0,0,0-1.9h-6.636l-1.674-1.674a.948.948,0,0,0-1.34,1.34Z" transform="translate(-338.916 -227.655)"/>
        <path id="Trazado_917322" data-name="Trazado 917322" d="M422.169,298.966H416.7a.948.948,0,1,0,0,1.9h5.465a.948.948,0,1,0,0-1.9Z" transform="translate(-363.227 -265.615)"/>
        <path id="Trazado_917323" data-name="Trazado 917323" d="M437.448,326.966H434.4a.948.948,0,0,0,0,1.9h3.043a.948.948,0,0,0,0-1.9Z" transform="translate(-378.691 -290.077)"/>
        <path id="Trazado_917324" data-name="Trazado 917324" d="M390.159,192.28l-1.952,1.952a.948.948,0,0,0,1.34,1.34l1.674-1.674h6.636a.948.948,0,0,0,0-1.9h-7.029A.949.949,0,0,0,390.159,192.28Z" transform="translate(-338.916 -172.165)"/>
        <path id="Trazado_917325" data-name="Trazado 917325" d="M415.755,164.951a.948.948,0,0,0,.948.948h5.465a.948.948,0,0,0,0-1.9H416.7A.948.948,0,0,0,415.755,164.951Z" transform="translate(-363.226 -147.704)"/>
        <path id="Trazado_917326" data-name="Trazado 917326" d="M437.448,137.9a.948.948,0,1,0,0-1.9H434.4a.948.948,0,0,0,0,1.9Z" transform="translate(-378.691 -123.242)"/>
      </g>
    </g>
  </g>
</svg>
