<svg xmlns="http://www.w3.org/2000/svg" xmlns:xlink="http://www.w3.org/1999/xlink" width="108.914" height="108.914" viewBox="0 0 108.914 108.914">
  <defs>
    <filter id="Trazado_874925" x="0" y="0" width="108.914" height="108.914" filterUnits="userSpaceOnUse">
      <feOffset dy="3" input="SourceAlpha"/>
      <feGaussianBlur stdDeviation="3" result="blur"/>
      <feFlood flood-opacity="0.161"/>
      <feComposite operator="in" in2="blur"/>
      <feComposite in="SourceGraphic"/>
    </filter>
  </defs>
  <g id="Grupo_1113495" data-name="Grupo 1113495" transform="translate(-817.427 -2518.29)">
    <g transform="matrix(1, 0, 0, 1, 817.43, 2518.29)" filter="url(#Trazado_874925)">
      <g id="Trazado_874925-2" data-name="Trazado 874925" transform="translate(9 6)" fill="#de93ea" opacity="0.859">
        <path d="M 45.45676803588867 89.41407012939453 C 39.52198028564453 89.41407012939453 33.76551818847656 88.25206756591797 28.34726715087891 85.96034240722656 C 23.11311721801758 83.74648284912109 18.41204261779785 80.57682800292969 14.37464332580566 76.5394287109375 C 10.33724308013916 72.50202941894531 7.167593002319336 67.80095672607422 4.953730583190918 62.56679534912109 C 2.662005424499512 57.14855575561523 1.500005483627319 51.39208221435547 1.500005483627319 45.45729446411133 C 1.500005483627319 39.52198028564453 2.662005424499512 33.76551818847656 4.953730583190918 28.34726905822754 C 7.167593002319336 23.11310577392578 10.33724308013916 18.41203117370605 14.37464332580566 14.37464332580566 C 18.41204261779785 10.33724403381348 23.11311721801758 7.167593955993652 28.34726715087891 4.953731060028076 C 33.76551818847656 2.662006139755249 39.52198028564453 1.500006198883057 45.45676803588867 1.500006198883057 C 51.39155578613281 1.500006198883057 57.14802932739258 2.662006139755249 62.56626892089844 4.953731060028076 C 67.80043029785156 7.167593955993652 72.50150299072266 10.33724403381348 76.53890228271484 14.37464332580566 C 80.57630920410156 18.41203117370605 83.74595642089844 23.11310577392578 85.95981597900391 28.34726905822754 C 88.25154113769531 33.76551818847656 89.41354370117188 39.52198028564453 89.41354370117188 45.45676803588867 C 89.41354370117188 51.39208221435547 88.25154113769531 57.14855575561523 85.95981597900391 62.56679534912109 C 83.74595642089844 67.80095672607422 80.57630920410156 72.50202941894531 76.53890228271484 76.5394287109375 C 72.50150299072266 80.57682800292969 67.80043029785156 83.74648284912109 62.56626892089844 85.96034240722656 C 57.14802932739258 88.25206756591797 51.39155578613281 89.41407012939453 45.45676803588867 89.41407012939453 Z" stroke="none"/>
        <path d="M 45.45676803588867 3 C 39.72381210327148 3 34.1639404296875 4.12213134765625 28.93159484863281 6.335227966308594 C 23.87622833251953 8.473472595214844 19.33542633056641 11.53517150878906 15.43529510498047 15.435302734375 C 11.53517150878906 19.33543395996094 8.473464965820312 23.87622833251953 6.335227966308594 28.93160247802734 C 4.122123718261719 34.16394424438477 3 39.72381591796875 3 45.4572868347168 C 3 51.19024658203125 4.122123718261719 56.75011825561523 6.335227966308594 61.98246002197266 C 8.473464965820312 67.03782653808594 11.53517150878906 71.57862854003906 15.43529510498047 75.478759765625 C 19.33542633056641 79.37889099121094 23.87622833251953 82.44058990478516 28.93159484863281 84.57883453369141 C 34.1639404296875 86.79193115234375 39.72381210327148 87.9140625 45.45676803588867 87.9140625 C 51.18972396850586 87.9140625 56.74959564208984 86.79193115234375 61.98194122314453 84.57883453369141 C 67.03730773925781 82.44058990478516 71.57810974121094 79.37889099121094 75.47824096679688 75.478759765625 C 79.37837219238281 71.57862854003906 82.44007110595703 67.03782653808594 84.57830810546875 61.98246002197266 C 86.79141235351562 56.75011825561523 87.91353607177734 51.19024658203125 87.91353607177734 45.4567756652832 C 87.91353607177734 39.72381591796875 86.79141235351562 34.16394424438477 84.57830810546875 28.93160247802734 C 82.44007110595703 23.87622833251953 79.37837219238281 19.33543395996094 75.47824096679688 15.435302734375 C 71.57810974121094 11.53517150878906 67.03730773925781 8.473472595214844 61.98194122314453 6.335227966308594 C 56.74959564208984 4.12213134765625 51.18972396850586 3 45.45676803588867 3 M 45.45676803588867 0 C 70.56185150146484 0 90.91353607177734 20.35169219970703 90.91353607177734 45.4567756652832 L 90.91353607177734 45.4572868347168 C 90.91353607177734 70.5623779296875 70.56185150146484 90.9140625 45.45676803588867 90.9140625 C 20.3516845703125 90.9140625 0 70.5623779296875 0 45.4572868347168 L 0 45.4567756652832 C 0 20.35169219970703 20.3516845703125 0 45.45676803588867 0 Z" stroke="none" fill="#fff"/>
      </g>
    </g>
    <g id="Page-1" transform="translate(844.642 2542.455)">
      <g id="_036---Electric-Circuit" data-name="036---Electric-Circuit">
        <rect id="Rectangle-path" width="52" height="52" rx="6" transform="translate(1.335 1.335)" fill="#00bcd4"/>
        <path id="Shape" d="M52.734,1H50a5.467,5.467,0,0,1,5.467,5.467V48.381A5.467,5.467,0,0,1,50,53.849h2.734A5.467,5.467,0,0,0,58.2,48.381V6.467A5.467,5.467,0,0,0,52.734,1Z" transform="translate(-4.441 -0.089)" fill="#00838f"/>
        <rect id="Rectangle-path-2" data-name="Rectangle-path" width="34" height="34" rx="2" transform="translate(10.335 10.335)" fill="#3f51b5"/>
        <ellipse id="Oval" cx="5.5" cy="5" rx="5.5" ry="5" transform="translate(39.335 22.335)" fill="#ffdc00"/>
        <path id="Shape-2" data-name="Shape" d="M48.867,24a5.452,5.452,0,0,0-1.367.182,5.46,5.46,0,0,1,0,10.575A5.467,5.467,0,1,0,48.867,24Z" transform="translate(-4.219 -2.132)" fill="#fec108"/>
        <ellipse id="Oval-2" data-name="Oval" cx="2.5" cy="3" rx="2.5" ry="3" transform="translate(7.335 15.335)" fill="#ef314c"/>
        <path id="Shape-3" data-name="Shape" d="M10.867,17a2.7,2.7,0,0,0-1.367.379,2.712,2.712,0,0,1,0,4.709,2.7,2.7,0,0,0,1.367.379,2.734,2.734,0,1,0,0-5.467Z" transform="translate(-0.844 -1.51)" fill="#bb193b"/>
        <ellipse id="Oval-3" data-name="Oval" cx="2.5" cy="3" rx="2.5" ry="3" transform="translate(7.335 33.335)" fill="#ef314c"/>
        <path id="Shape-4" data-name="Shape" d="M10.867,37a2.7,2.7,0,0,0-1.367.379,2.712,2.712,0,0,1,0,4.709,2.7,2.7,0,0,0,1.367.379,2.734,2.734,0,1,0,0-5.467Z" transform="translate(-0.844 -3.286)" fill="#bb193b"/>
        <path id="Shape-5" data-name="Shape" d="M25.952,39.122l1.015-10.186H23.6a.683.683,0,0,1-.426-1.146l8.6-9.589a.6.6,0,0,1,1.025.547L31.788,28.936h3.365a.683.683,0,0,1,.426,1.146l-8.6,9.589a.6.6,0,0,1-1.025-.549Z" transform="translate(-2.042 -1.6)" fill="#ffdc00"/>
        <g id="Grupo_1113530" data-name="Grupo 1113530">
          <path id="Shape-6" data-name="Shape" d="M48.293,0H6.378A6.386,6.386,0,0,0,0,6.378V48.293a6.386,6.386,0,0,0,6.378,6.378H48.293a6.386,6.386,0,0,0,6.378-6.378V6.378A6.386,6.386,0,0,0,48.293,0Zm4.556,48.293a4.561,4.561,0,0,1-4.556,4.556H6.378a4.561,4.561,0,0,1-4.556-4.556V6.378A4.561,4.561,0,0,1,6.378,1.822H48.293a4.561,4.561,0,0,1,4.556,4.556Z"/>
          <path id="Shape-7" data-name="Shape" d="M46.18,21.652V12.467a2.734,2.734,0,0,0-2.734-2.734H30.689V7.911a.911.911,0,0,0-1.822,0v5.467a.911.911,0,0,0,1.822,0V11.556H43.446a.911.911,0,0,1,.911.911v9.185a6.37,6.37,0,0,0,0,12.611v9.185a.911.911,0,0,1-.911.911H12.466a.911.911,0,0,1-.911-.911V40.584a3.616,3.616,0,0,0,1.474-6.249l4.813-9.616a.912.912,0,1,0-1.631-.815l-4.806,9.6a3.637,3.637,0,0,0-1.673,7.077v2.863a2.734,2.734,0,0,0,2.734,2.734h30.98a2.734,2.734,0,0,0,2.734-2.734V34.263a6.37,6.37,0,0,0,0-12.611ZM8.821,37.069a1.822,1.822,0,1,1,1.822,1.822A1.822,1.822,0,0,1,8.821,37.069ZM47.777,24.16l-2.508,2.508L42.76,24.16a4.525,4.525,0,0,1,5.017,0Zm-6.305,1.288,2.508,2.508-2.508,2.508a4.525,4.525,0,0,1,0-5.017Zm3.8,3.8,2.508,2.508a4.525,4.525,0,0,1-5.017,0Zm3.8,1.22-2.508-2.508,2.508-2.508A4.525,4.525,0,0,1,49.065,30.466Z" transform="translate(-0.62 -0.622)"/>
          <path id="Shape-8" data-name="Shape" d="M10.645,22.224a3.637,3.637,0,0,0,.911-7.16V12.2a.911.911,0,0,1,.911-.911H25.224v4.556a.911.911,0,1,0,1.822,0V4.911a.911.911,0,1,0-1.822,0V9.467H12.467A2.734,2.734,0,0,0,9.734,12.2v2.863a3.637,3.637,0,0,0,.911,7.16Zm0-5.467a1.822,1.822,0,1,1-1.822,1.822A1.822,1.822,0,0,1,10.645,16.757Z" transform="translate(-0.622 -0.355)"/>
          <path id="Shape-9" data-name="Shape" d="M32.7,17.127a1.458,1.458,0,0,0-1.692.375l-8.6,9.588a1.631,1.631,0,0,0-.267,1.755,1.493,1.493,0,0,0,1.367.911H25.87l-.912,9.185a1.585,1.585,0,0,0,.918,1.623,1.449,1.449,0,0,0,1.692-.375l8.6-9.588a1.631,1.631,0,0,0,.267-1.755,1.493,1.493,0,0,0-1.367-.911H32.705l.911-9.185a1.585,1.585,0,0,0-.913-1.623Zm1.773,12.63-7.619,8.495.929-9.315a.911.911,0,0,0-.911-1H24.1l7.619-8.495-.929,9.315a.911.911,0,0,0,.911,1Z" transform="translate(-1.954 -1.51)"/>
        </g>
      </g>
    </g>
  </g>
</svg>
