<svg xmlns="http://www.w3.org/2000/svg" width="75" height="20" viewBox="0 0 75 20">
  <g id="Grupo_1113574" data-name="Grupo 1113574" transform="translate(5129 15516.033)">
    <g id="Trazado_898658" data-name="Trazado 898658" transform="translate(-5129 -15516.033)" fill="none">
      <path d="M10,0A10,10,0,1,1,0,10,10,10,0,0,1,10,0Z" stroke="none"/>
      <path d="M 10 3 C 6.140190124511719 3 3 6.140190124511719 3 10 C 3 13.85980987548828 6.140190124511719 17 10 17 C 13.85980987548828 17 17 13.85980987548828 17 10 C 17 6.140190124511719 13.85980987548828 3 10 3 M 10 0 C 15.52285003662109 0 20 4.477149963378906 20 10 C 20 15.52285003662109 15.52285003662109 20 10 20 C 4.477149963378906 20 0 15.52285003662109 0 10 C 0 4.477149963378906 4.477149963378906 0 10 0 Z" stroke="none" fill="#fff"/>
    </g>
    <g id="Polígono_5" data-name="Polígono 5" transform="translate(-5103 -15516.033)" fill="none">
      <path d="M12,0,24,20H0Z" stroke="none"/>
      <path d="M 12 5.83095645904541 L 5.298574447631836 17 L 18.70142555236816 17 L 12 5.83095645904541 M 12 0 L 24 20 L 0 20 L 12 0 Z" stroke="none" fill="#fff"/>
    </g>
    <g id="Trazado_898659" data-name="Trazado 898659" transform="translate(-5074 -15516.033)" fill="none">
      <path d="M10,0A10,10,0,1,1,0,10,10,10,0,0,1,10,0Z" stroke="none"/>
      <path d="M 10 3 C 6.140190124511719 3 3 6.140190124511719 3 10 C 3 13.85980987548828 6.140190124511719 17 10 17 C 13.85980987548828 17 17 13.85980987548828 17 10 C 17 6.140190124511719 13.85980987548828 3 10 3 M 10 0 C 15.52285003662109 0 20 4.477149963378906 20 10 C 20 15.52285003662109 15.52285003662109 20 10 20 C 4.477149963378906 20 0 15.52285003662109 0 10 C 0 4.477149963378906 4.477149963378906 0 10 0 Z" stroke="none" fill="#fff"/>
    </g>
  </g>
</svg>
