<svg xmlns="http://www.w3.org/2000/svg" xmlns:xlink="http://www.w3.org/1999/xlink" width="290.329" height="218.593" viewBox="0 0 290.329 218.593">
  <defs>
    <clipPath id="clip-path">
      <rect id="Rectángulo_405348" data-name="Rectángulo 405348" width="103.82" height="103.82" fill="none"/>
    </clipPath>
    <clipPath id="clip-path-2">
      <rect id="Rectángulo_405347" data-name="Rectángulo 405347" width="103.82" height="103.82" transform="translate(0 0)" fill="none"/>
    </clipPath>
    <clipPath id="clip-path-3">
      <rect id="Rectángulo_405321" data-name="Rectángulo 405321" width="83.38" height="83.38" transform="translate(11.17 11.17)" fill="none"/>
    </clipPath>
  </defs>
  <g id="Grupo_1114170" data-name="Grupo 1114170" transform="translate(-1013.051 -1338.758)">
    <g id="Grupo_1114168" data-name="Grupo 1114168" transform="translate(5070.051 12861.788)">
      <circle id="Elipse_11620" data-name="Elipse 11620" cx="79.5" cy="79.5" r="79.5" transform="translate(-4003 -11469)" fill="#d7e9ff"/>
      <circle id="Elipse_11621" data-name="Elipse 11621" cx="53" cy="53" r="53" transform="translate(-3901 -11495)" fill="#e9f7ef"/>
      <g id="Grupo_1114156" data-name="Grupo 1114156" transform="translate(-3817.591 -11345.107)">
        <g id="Grupo_1108294" data-name="Grupo 1108294">
          <path id="Trazado_898644" data-name="Trazado 898644" d="M-11858.884-12823.959l-16.132,16.131" transform="translate(11875.016 12823.959)" fill="none" stroke="#d2fbfc" stroke-linecap="round" stroke-width="6"/>
          <path id="Trazado_898645" data-name="Trazado 898645" d="M-11875.016-12823.959l16.132,16.131" transform="translate(11875.016 12823.959)" fill="none" stroke="#d2fbfc" stroke-linecap="round" stroke-width="6"/>
        </g>
        <g id="Grupo_1108295" data-name="Grupo 1108295" transform="matrix(0.921, 0.391, -0.391, 0.921, 30.508, 13.956)">
          <path id="Trazado_898646" data-name="Trazado 898646" d="M16.131,0,0,16.13" transform="translate(0 0)" fill="none" stroke="#9cc8ff" stroke-linecap="round" stroke-width="6"/>
          <path id="Trazado_898647" data-name="Trazado 898647" d="M0,0,16.131,16.13" transform="translate(0 0)" fill="none" stroke="#9cc8ff" stroke-linecap="round" stroke-width="6"/>
        </g>
      </g>
      <g id="Grupo_1114157" data-name="Grupo 1114157" transform="translate(-3995.999 -11518.788)">
        <g id="Grupo_1108294-2" data-name="Grupo 1108294">
          <path id="Trazado_898644-2" data-name="Trazado 898644" d="M-11858.884-12823.959l-16.132,16.131" transform="translate(11875.016 12823.959)" fill="none" stroke="#d2fbfc" stroke-linecap="round" stroke-width="6"/>
          <path id="Trazado_898645-2" data-name="Trazado 898645" d="M-11875.016-12823.959l16.132,16.131" transform="translate(11875.016 12823.959)" fill="none" stroke="#d2fbfc" stroke-linecap="round" stroke-width="6"/>
        </g>
        <g id="Grupo_1108295-2" data-name="Grupo 1108295" transform="matrix(0.921, 0.391, -0.391, 0.921, 30.508, 13.956)">
          <path id="Trazado_898646-2" data-name="Trazado 898646" d="M16.131,0,0,16.13" transform="translate(0 0)" fill="none" stroke="#9cc8ff" stroke-linecap="round" stroke-width="6"/>
          <path id="Trazado_898647-2" data-name="Trazado 898647" d="M0,0,16.131,16.13" transform="translate(0 0)" fill="none" stroke="#9cc8ff" stroke-linecap="round" stroke-width="6"/>
        </g>
      </g>
      <g id="Grupo_1114158" data-name="Grupo 1114158" transform="translate(1072 4178.033)">
        <g id="Trazado_898658" data-name="Trazado 898658" transform="translate(-5129 -15516.033)" fill="none">
          <path d="M10,0A10,10,0,1,1,0,10,10,10,0,0,1,10,0Z" stroke="none"/>
          <path d="M 10 3 C 6.140190124511719 3 3 6.140190124511719 3 10 C 3 13.85980987548828 6.140190124511719 17 10 17 C 13.85980987548828 17 17 13.85980987548828 17 10 C 17 6.140190124511719 13.85980987548828 3 10 3 M 10 0 C 15.52285003662109 0 20 4.477149963378906 20 10 C 20 15.52285003662109 15.52285003662109 20 10 20 C 4.477149963378906 20 0 15.52285003662109 0 10 C 0 4.477149963378906 4.477149963378906 0 10 0 Z" stroke="none" fill="#fff"/>
        </g>
        <g id="Polígono_5" data-name="Polígono 5" transform="translate(-5103 -15516.033)" fill="none">
          <path d="M12,0,24,20H0Z" stroke="none"/>
          <path d="M 12 5.83095645904541 L 5.298574447631836 17 L 18.70142555236816 17 L 12 5.83095645904541 M 12 0 L 24 20 L 0 20 L 12 0 Z" stroke="none" fill="#fff"/>
        </g>
        <g id="Trazado_898659" data-name="Trazado 898659" transform="translate(-5074 -15516.033)" fill="none">
          <path d="M10,0A10,10,0,1,1,0,10,10,10,0,0,1,10,0Z" stroke="none"/>
          <path d="M 10 3 C 6.140190124511719 3 3 6.140190124511719 3 10 C 3 13.85980987548828 6.140190124511719 17 10 17 C 13.85980987548828 17 17 13.85980987548828 17 10 C 17 6.140190124511719 13.85980987548828 3 10 3 M 10 0 C 15.52285003662109 0 20 4.477149963378906 20 10 C 20 15.52285003662109 15.52285003662109 20 10 20 C 4.477149963378906 20 0 15.52285003662109 0 10 C 0 4.477149963378906 4.477149963378906 0 10 0 Z" stroke="none" fill="#fff"/>
        </g>
      </g>
    </g>
    <g id="Grupo_1114159" data-name="Grupo 1114159" transform="translate(1103.051 1395)">
      <g id="Grupo_1114098" data-name="Grupo 1114098" clip-path="url(#clip-path)">
        <g id="Grupo_1114097" data-name="Grupo 1114097">
          <g id="Grupo_1114096" data-name="Grupo 1114096" clip-path="url(#clip-path-2)">
            <path id="Trazado_923787" data-name="Trazado 923787" d="M15.758,103.82A15.768,15.768,0,0,1,0,88.062v-72.3A15.776,15.776,0,0,1,15.758,0h72.3a15.755,15.755,0,0,1,15.758,15.759v72.3A15.776,15.776,0,0,1,88.061,103.82Z" fill="#00431f"/>
            <path id="Trazado_923788" data-name="Trazado 923788" d="M93.989,9.878a8.36,8.36,0,0,0-5.928-2.462h-72.3a8.351,8.351,0,0,0-8.342,8.342v72.3A8.358,8.358,0,0,0,15.758,96.4h72.3A8.352,8.352,0,0,0,96.4,88.061v-72.3a8.334,8.334,0,0,0-2.415-5.88" fill="#11aa56"/>
            <path id="Trazado_923789" data-name="Trazado 923789" d="M94.55,15.758v72.3a6.5,6.5,0,0,1-6.489,6.489h-72.3a6.506,6.506,0,0,1-6.489-6.489v-72.3a6.5,6.5,0,0,1,6.489-6.489h72.3a6.473,6.473,0,0,1,6.489,6.489" fill="#156335"/>
            <g id="Grupo_1114095" data-name="Grupo 1114095" opacity="0.4" style="mix-blend-mode: multiply;isolation: isolate">
              <g id="Grupo_1114094" data-name="Grupo 1114094">
                <g id="Grupo_1114093" data-name="Grupo 1114093" clip-path="url(#clip-path-3)">
                  <path id="Trazado_923790" data-name="Trazado 923790" d="M94.55,15.758v72.3a6.341,6.341,0,0,1-.4,2.225,5.243,5.243,0,0,1-.417.9A6.24,6.24,0,0,1,91.88,93.3a6.088,6.088,0,0,1-.806.51,6.464,6.464,0,0,1-3.013.742h-72.3a6.4,6.4,0,0,1-4.588-1.9L92.65,11.17l.018.018a6.475,6.475,0,0,1,1.882,4.57" fill="#156335"/>
                </g>
              </g>
            </g>
            <rect id="Rectángulo_405322" data-name="Rectángulo 405322" width="6.102" height="9.424" transform="translate(28.774 20.664)" fill="#ccc"/>
            <rect id="Rectángulo_405323" data-name="Rectángulo 405323" width="6.102" height="9.424" transform="translate(38.817 20.664)" fill="#ccc"/>
            <rect id="Rectángulo_405324" data-name="Rectángulo 405324" width="6.103" height="9.424" transform="translate(48.858 20.664)" fill="#ccc"/>
            <rect id="Rectángulo_405325" data-name="Rectángulo 405325" width="6.103" height="9.424" transform="translate(58.9 20.664)" fill="#ccc"/>
            <rect id="Rectángulo_405326" data-name="Rectángulo 405326" width="6.102" height="9.424" transform="translate(68.943 20.664)" fill="#ccc"/>
            <rect id="Rectángulo_405327" data-name="Rectángulo 405327" width="6.102" height="9.424" transform="translate(28.774 73.732)" fill="#ccc"/>
            <rect id="Rectángulo_405328" data-name="Rectángulo 405328" width="6.102" height="9.424" transform="translate(38.817 73.732)" fill="#ccc"/>
            <rect id="Rectángulo_405329" data-name="Rectángulo 405329" width="6.103" height="9.424" transform="translate(48.858 73.732)" fill="#ccc"/>
            <rect id="Rectángulo_405330" data-name="Rectángulo 405330" width="6.103" height="9.424" transform="translate(58.9 73.732)" fill="#ccc"/>
            <rect id="Rectángulo_405331" data-name="Rectángulo 405331" width="6.102" height="9.424" transform="translate(68.943 73.732)" fill="#ccc"/>
            <path id="Trazado_923791" data-name="Trazado 923791" d="M94.55,33.213V30.432H73.387V9.27H70.606V30.432H63.339V9.27H60.558V30.432H53.3V9.27H50.519V30.432H43.261V9.27H40.48V30.432H33.213V9.27H30.432V30.432H9.269v2.781H30.432V40.48H9.269v2.781H30.432v7.258H9.269V53.3H30.432v7.258H9.269v2.781H30.432v7.268H9.269v2.781H30.432V94.55h2.781V73.388H40.48V94.55h2.781V73.388h7.258V94.55H53.3V73.388h7.258V94.55h2.781V73.388h7.267V94.55h2.781V73.388H94.55V70.607H73.387V63.339H94.55V60.558H73.387V53.3H94.55V50.519H73.387V43.261H94.55V40.48H73.387V33.213ZM40.48,70.607H33.213V63.34H40.48Zm0-10.049H33.213V53.3H40.48Zm0-10.039H33.213V43.261H40.48Zm0-10.039H33.213V33.213H40.48ZM50.519,70.607H43.261V63.34h7.258Zm0-10.049H43.261V53.3h7.258Zm0-10.039H43.261V43.261h7.258Zm0-10.039H43.261V33.213h7.258ZM60.558,70.607H53.3V63.34h7.258Zm0-10.049H53.3V53.3h7.258Zm0-10.039H53.3V43.261h7.258Zm0-10.039H53.3V33.213h7.258ZM70.606,70.607H63.339V63.34h7.267Zm0-10.049H63.339V53.3h7.267Zm0-10.039H63.339V43.261h7.267Zm0-10.039H63.339V33.213h7.267Z" fill="#00431f"/>
            <rect id="Rectángulo_405332" data-name="Rectángulo 405332" width="9.424" height="6.102" transform="translate(73.732 28.774)" fill="#ccc"/>
            <rect id="Rectángulo_405333" data-name="Rectángulo 405333" width="9.424" height="6.102" transform="translate(73.732 38.817)" fill="#ccc"/>
            <rect id="Rectángulo_405334" data-name="Rectángulo 405334" width="9.424" height="6.102" transform="translate(73.732 48.859)" fill="#ccc"/>
            <rect id="Rectángulo_405335" data-name="Rectángulo 405335" width="9.424" height="6.102" transform="translate(73.732 58.901)" fill="#ccc"/>
            <rect id="Rectángulo_405336" data-name="Rectángulo 405336" width="9.424" height="6.103" transform="translate(73.732 68.943)" fill="#ccc"/>
            <rect id="Rectángulo_405337" data-name="Rectángulo 405337" width="9.424" height="6.102" transform="translate(20.663 28.774)" fill="#ccc"/>
            <rect id="Rectángulo_405338" data-name="Rectángulo 405338" width="9.424" height="6.102" transform="translate(20.663 38.817)" fill="#ccc"/>
            <rect id="Rectángulo_405339" data-name="Rectángulo 405339" width="9.424" height="6.102" transform="translate(20.663 48.859)" fill="#ccc"/>
            <rect id="Rectángulo_405340" data-name="Rectángulo 405340" width="9.424" height="6.102" transform="translate(20.663 58.901)" fill="#ccc"/>
            <rect id="Rectángulo_405341" data-name="Rectángulo 405341" width="9.424" height="6.103" transform="translate(20.663 68.943)" fill="#ccc"/>
            <rect id="Rectángulo_405342" data-name="Rectángulo 405342" width="4.366" height="6.109" transform="translate(9.269 28.773)" fill="#df9d34"/>
            <rect id="Rectángulo_405343" data-name="Rectángulo 405343" width="4.366" height="6.099" transform="translate(9.269 38.822)" fill="#df9d34"/>
            <rect id="Rectángulo_405344" data-name="Rectángulo 405344" width="4.366" height="6.099" transform="translate(9.269 48.861)" fill="#df9d34"/>
            <rect id="Rectángulo_405345" data-name="Rectángulo 405345" width="4.366" height="6.109" transform="translate(9.269 58.899)" fill="#df9d34"/>
            <rect id="Rectángulo_405346" data-name="Rectángulo 405346" width="4.366" height="6.099" transform="translate(9.269 68.948)" fill="#df9d34"/>
            <path id="Trazado_923792" data-name="Trazado 923792" d="M77.2,26.632a4.005,4.005,0,0,0-2.857-1.187H29.472a4.031,4.031,0,0,0-4.027,4.027V74.347a4.034,4.034,0,0,0,4.027,4.027H74.347a4.031,4.031,0,0,0,4.027-4.027V29.472a4.022,4.022,0,0,0-1.17-2.84" fill="#1a1a1a"/>
            <path id="Trazado_923793" data-name="Trazado 923793" d="M31.006,70.959v-38.1a1.854,1.854,0,0,1,1.854-1.854h38.1a1.854,1.854,0,0,1,1.854,1.854v38.1a1.854,1.854,0,0,1-1.854,1.854H32.86a1.854,1.854,0,0,1-1.854-1.854" fill="#333"/>
          </g>
        </g>
      </g>
    </g>
  </g>
</svg>
