<svg xmlns="http://www.w3.org/2000/svg" xmlns:xlink="http://www.w3.org/1999/xlink" width="108.914" height="108.914" viewBox="0 0 108.914 108.914">
  <defs>
    <filter id="Trazado_874925" x="0" y="0" width="108.914" height="108.914" filterUnits="userSpaceOnUse">
      <feOffset dy="3" input="SourceAlpha"/>
      <feGaussianBlur stdDeviation="3" result="blur"/>
      <feFlood flood-opacity="0.161"/>
      <feComposite operator="in" in2="blur"/>
      <feComposite in="SourceGraphic"/>
    </filter>
  </defs>
  <g id="Grupo_1108273" data-name="Grupo 1108273" transform="translate(-817.427 -2518.29)">
    <g transform="matrix(1, 0, 0, 1, 817.43, 2518.29)" filter="url(#Trazado_874925)">
      <g id="Trazado_874925-2" data-name="Trazado 874925" transform="translate(9 6)" fill="#de93ea" opacity="0.859">
        <path d="M 45.45676803588867 89.41407012939453 C 39.52198028564453 89.41407012939453 33.76551818847656 88.25206756591797 28.34726715087891 85.96034240722656 C 23.11311721801758 83.74648284912109 18.41204261779785 80.57682800292969 14.37464332580566 76.5394287109375 C 10.33724308013916 72.50202941894531 7.167593002319336 67.80095672607422 4.953730583190918 62.56679534912109 C 2.662005424499512 57.14855575561523 1.500005483627319 51.39208221435547 1.500005483627319 45.45729446411133 C 1.500005483627319 39.52198028564453 2.662005424499512 33.76551818847656 4.953730583190918 28.34726905822754 C 7.167593002319336 23.11310577392578 10.33724308013916 18.41203117370605 14.37464332580566 14.37464332580566 C 18.41204261779785 10.33724403381348 23.11311721801758 7.167593955993652 28.34726715087891 4.953731060028076 C 33.76551818847656 2.662006139755249 39.52198028564453 1.500006198883057 45.45676803588867 1.500006198883057 C 51.39155578613281 1.500006198883057 57.14802932739258 2.662006139755249 62.56626892089844 4.953731060028076 C 67.80043029785156 7.167593955993652 72.50150299072266 10.33724403381348 76.53890228271484 14.37464332580566 C 80.57630920410156 18.41203117370605 83.74595642089844 23.11310577392578 85.95981597900391 28.34726905822754 C 88.25154113769531 33.76551818847656 89.41354370117188 39.52198028564453 89.41354370117188 45.45676803588867 C 89.41354370117188 51.39208221435547 88.25154113769531 57.14855575561523 85.95981597900391 62.56679534912109 C 83.74595642089844 67.80095672607422 80.57630920410156 72.50202941894531 76.53890228271484 76.5394287109375 C 72.50150299072266 80.57682800292969 67.80043029785156 83.74648284912109 62.56626892089844 85.96034240722656 C 57.14802932739258 88.25206756591797 51.39155578613281 89.41407012939453 45.45676803588867 89.41407012939453 Z" stroke="none"/>
        <path d="M 45.45676803588867 3 C 39.72381210327148 3 34.1639404296875 4.12213134765625 28.93159484863281 6.335227966308594 C 23.87622833251953 8.473472595214844 19.33542633056641 11.53517150878906 15.43529510498047 15.435302734375 C 11.53517150878906 19.33543395996094 8.473464965820312 23.87622833251953 6.335227966308594 28.93160247802734 C 4.122123718261719 34.16394424438477 3 39.72381591796875 3 45.4572868347168 C 3 51.19024658203125 4.122123718261719 56.75011825561523 6.335227966308594 61.98246002197266 C 8.473464965820312 67.03782653808594 11.53517150878906 71.57862854003906 15.43529510498047 75.478759765625 C 19.33542633056641 79.37889099121094 23.87622833251953 82.44058990478516 28.93159484863281 84.57883453369141 C 34.1639404296875 86.79193115234375 39.72381210327148 87.9140625 45.45676803588867 87.9140625 C 51.18972396850586 87.9140625 56.74959564208984 86.79193115234375 61.98194122314453 84.57883453369141 C 67.03730773925781 82.44058990478516 71.57810974121094 79.37889099121094 75.47824096679688 75.478759765625 C 79.37837219238281 71.57862854003906 82.44007110595703 67.03782653808594 84.57830810546875 61.98246002197266 C 86.79141235351562 56.75011825561523 87.91353607177734 51.19024658203125 87.91353607177734 45.4567756652832 C 87.91353607177734 39.72381591796875 86.79141235351562 34.16394424438477 84.57830810546875 28.93160247802734 C 82.44007110595703 23.87622833251953 79.37837219238281 19.33543395996094 75.47824096679688 15.435302734375 C 71.57810974121094 11.53517150878906 67.03730773925781 8.473472595214844 61.98194122314453 6.335227966308594 C 56.74959564208984 4.12213134765625 51.18972396850586 3 45.45676803588867 3 M 45.45676803588867 0 C 70.56185150146484 0 90.91353607177734 20.35169219970703 90.91353607177734 45.4567756652832 L 90.91353607177734 45.4572868347168 C 90.91353607177734 70.5623779296875 70.56185150146484 90.9140625 45.45676803588867 90.9140625 C 20.3516845703125 90.9140625 0 70.5623779296875 0 45.4572868347168 L 0 45.4567756652832 C 0 20.35169219970703 20.3516845703125 0 45.45676803588867 0 Z" stroke="none" fill="#fff"/>
      </g>
    </g>
    <g id="Grupo_1113497" data-name="Grupo 1113497" transform="translate(839.427 2537.79)">
      <path id="Trazado_917154" data-name="Trazado 917154" d="M13,7h5v6H13Z" fill="#898890"/>
      <path id="Trazado_917155" data-name="Trazado 917155" d="M24,7h5v6H24Z" fill="#898890"/>
      <path id="Trazado_917156" data-name="Trazado 917156" d="M35,7h5v6H35Z" fill="#898890"/>
      <path id="Trazado_917157" data-name="Trazado 917157" d="M46,7h5v6H46Z" fill="#898890"/>
      <g id="Grupo_1113496" data-name="Grupo 1113496">
        <path id="Trazado_917158" data-name="Trazado 917158" d="M46,3h5V7H46Z" fill="#e0e0e2"/>
        <path id="Trazado_917159" data-name="Trazado 917159" d="M35,3h5V7H35Z" fill="#e0e0e2"/>
        <path id="Trazado_917160" data-name="Trazado 917160" d="M24,3h5V7H24Z" fill="#e0e0e2"/>
        <path id="Trazado_917161" data-name="Trazado 917161" d="M13,3h5V7H13Z" fill="#e0e0e2"/>
        <path id="Trazado_917162" data-name="Trazado 917162" d="M13,57h5v4H13Z" fill="#e0e0e2"/>
        <path id="Trazado_917163" data-name="Trazado 917163" d="M24,57h5v4H24Z" fill="#e0e0e2"/>
        <path id="Trazado_917164" data-name="Trazado 917164" d="M35,57h5v4H35Z" fill="#e0e0e2"/>
        <path id="Trazado_917165" data-name="Trazado 917165" d="M46,57h5v4H46Z" fill="#e0e0e2"/>
      </g>
      <path id="Trazado_917166" data-name="Trazado 917166" d="M46,51h5v6H46Z" fill="#898890"/>
      <path id="Trazado_917167" data-name="Trazado 917167" d="M35,51h5v6H35Z" fill="#898890"/>
      <path id="Trazado_917168" data-name="Trazado 917168" d="M24,51h5v6H24Z" fill="#898890"/>
      <path id="Trazado_917169" data-name="Trazado 917169" d="M13,51h5v6H13Z" fill="#898890"/>
      <path id="Trazado_917170" data-name="Trazado 917170" d="M55,15V49l-2,2H11L9,49V15l2-2H53Z" fill="#57565c"/>
      <path id="Trazado_917171" data-name="Trazado 917171" d="M12,16H52V48H12Z" fill="#2d2d30"/>
      <path id="Trazado_917172" data-name="Trazado 917172" d="M55.71,14.29l-2-2A1.033,1.033,0,0,0,53,12H52V3a1,1,0,0,0-1-1H46a1,1,0,0,0-1,1v9H41V3a1,1,0,0,0-1-1H35a1,1,0,0,0-1,1v9H30V3a1,1,0,0,0-1-1H24a1,1,0,0,0-1,1v9H19V3a1,1,0,0,0-1-1H13a1,1,0,0,0-1,1v9H11a1.033,1.033,0,0,0-.71.29l-2,2A1.033,1.033,0,0,0,8,15V49a1.033,1.033,0,0,0,.29.71l2,2A1.033,1.033,0,0,0,11,52h1v9a1,1,0,0,0,1,1h5a1,1,0,0,0,1-1V52h4v9a1,1,0,0,0,1,1h5a1,1,0,0,0,1-1V52h4v9a1,1,0,0,0,1,1h5a1,1,0,0,0,1-1V52h4v9a1,1,0,0,0,1,1h5a1,1,0,0,0,1-1V52h1a1.033,1.033,0,0,0,.71-.29l2-2A1.033,1.033,0,0,0,56,49V15a1.033,1.033,0,0,0-.29-.71ZM47,4h3V6H47Zm0,4h3v4H47ZM36,4h3V6H36Zm0,4h3v4H36ZM25,4h3V6H25Zm0,4h3v4H25ZM14,4h3V6H14Zm0,4h3v4H14Zm3,52H14V58h3Zm0-4H14V52h3Zm11,4H25V58h3Zm0-4H25V52h3Zm11,4H36V58h3Zm0-4H36V52h3Zm11,4H47V58h3Zm0-4H47V52h3Zm4-7.41L52.59,50H11.41L10,48.59V15.41L11.41,14H52.59L54,15.41Z"/>
      <path id="Trazado_917173" data-name="Trazado 917173" d="M52,15H12a1,1,0,0,0-1,1V48a1,1,0,0,0,1,1H52a1,1,0,0,0,1-1V16A1,1,0,0,0,52,15ZM51,47H13V17H51Z"/>
      <circle id="Elipse_11594" data-name="Elipse 11594" cx="2" cy="2" r="2" transform="translate(14 42)"/>
    </g>
  </g>
</svg>
