<svg xmlns="http://www.w3.org/2000/svg" xmlns:xlink="http://www.w3.org/1999/xlink" width="108.914" height="108.914" viewBox="0 0 108.914 108.914">
  <defs>
    <filter id="Trazado_874925" x="0" y="0" width="108.914" height="108.914" filterUnits="userSpaceOnUse">
      <feOffset dy="3" input="SourceAlpha"/>
      <feGaussianBlur stdDeviation="3" result="blur"/>
      <feFlood flood-opacity="0.161"/>
      <feComposite operator="in" in2="blur"/>
      <feComposite in="SourceGraphic"/>
    </filter>
  </defs>
  <g id="Grupo_1113493" data-name="Grupo 1113493" transform="translate(-817.478 -2518.29)">
    <g transform="matrix(1, 0, 0, 1, 817.48, 2518.29)" filter="url(#Trazado_874925)">
      <g id="Trazado_874925-2" data-name="Trazado 874925" transform="translate(9 6)" fill="#de93ea" opacity="0.859">
        <path d="M 45.45676803588867 89.41407012939453 C 39.52198028564453 89.41407012939453 33.76551818847656 88.25206756591797 28.34726715087891 85.96034240722656 C 23.11311721801758 83.74648284912109 18.41204261779785 80.57682800292969 14.37464332580566 76.5394287109375 C 10.33724308013916 72.50202941894531 7.167593002319336 67.80095672607422 4.953730583190918 62.56679534912109 C 2.662005424499512 57.14855575561523 1.500005483627319 51.39208221435547 1.500005483627319 45.45729446411133 C 1.500005483627319 39.52198028564453 2.662005424499512 33.76551818847656 4.953730583190918 28.34726905822754 C 7.167593002319336 23.11310577392578 10.33724308013916 18.41203117370605 14.37464332580566 14.37464332580566 C 18.41204261779785 10.33724403381348 23.11311721801758 7.167593955993652 28.34726715087891 4.953731060028076 C 33.76551818847656 2.662006139755249 39.52198028564453 1.500006198883057 45.45676803588867 1.500006198883057 C 51.39155578613281 1.500006198883057 57.14802932739258 2.662006139755249 62.56626892089844 4.953731060028076 C 67.80043029785156 7.167593955993652 72.50150299072266 10.33724403381348 76.53890228271484 14.37464332580566 C 80.57630920410156 18.41203117370605 83.74595642089844 23.11310577392578 85.95981597900391 28.34726905822754 C 88.25154113769531 33.76551818847656 89.41354370117188 39.52198028564453 89.41354370117188 45.45676803588867 C 89.41354370117188 51.39208221435547 88.25154113769531 57.14855575561523 85.95981597900391 62.56679534912109 C 83.74595642089844 67.80095672607422 80.57630920410156 72.50202941894531 76.53890228271484 76.5394287109375 C 72.50150299072266 80.57682800292969 67.80043029785156 83.74648284912109 62.56626892089844 85.96034240722656 C 57.14802932739258 88.25206756591797 51.39155578613281 89.41407012939453 45.45676803588867 89.41407012939453 Z" stroke="none"/>
        <path d="M 45.45676803588867 3 C 39.72381210327148 3 34.1639404296875 4.12213134765625 28.93159484863281 6.335227966308594 C 23.87622833251953 8.473472595214844 19.33542633056641 11.53517150878906 15.43529510498047 15.435302734375 C 11.53517150878906 19.33543395996094 8.473464965820312 23.87622833251953 6.335227966308594 28.93160247802734 C 4.122123718261719 34.16394424438477 3 39.72381591796875 3 45.4572868347168 C 3 51.19024658203125 4.122123718261719 56.75011825561523 6.335227966308594 61.98246002197266 C 8.473464965820312 67.03782653808594 11.53517150878906 71.57862854003906 15.43529510498047 75.478759765625 C 19.33542633056641 79.37889099121094 23.87622833251953 82.44058990478516 28.93159484863281 84.57883453369141 C 34.1639404296875 86.79193115234375 39.72381210327148 87.9140625 45.45676803588867 87.9140625 C 51.18972396850586 87.9140625 56.74959564208984 86.79193115234375 61.98194122314453 84.57883453369141 C 67.03730773925781 82.44058990478516 71.57810974121094 79.37889099121094 75.47824096679688 75.478759765625 C 79.37837219238281 71.57862854003906 82.44007110595703 67.03782653808594 84.57830810546875 61.98246002197266 C 86.79141235351562 56.75011825561523 87.91353607177734 51.19024658203125 87.91353607177734 45.4567756652832 C 87.91353607177734 39.72381591796875 86.79141235351562 34.16394424438477 84.57830810546875 28.93160247802734 C 82.44007110595703 23.87622833251953 79.37837219238281 19.33543395996094 75.47824096679688 15.435302734375 C 71.57810974121094 11.53517150878906 67.03730773925781 8.473472595214844 61.98194122314453 6.335227966308594 C 56.74959564208984 4.12213134765625 51.18972396850586 3 45.45676803588867 3 M 45.45676803588867 0 C 70.56185150146484 0 90.91353607177734 20.35169219970703 90.91353607177734 45.4567756652832 L 90.91353607177734 45.4572868347168 C 90.91353607177734 70.5623779296875 70.56185150146484 90.9140625 45.45676803588867 90.9140625 C 20.3516845703125 90.9140625 0 70.5623779296875 0 45.4572868347168 L 0 45.4567756652832 C 0 20.35169219970703 20.3516845703125 0 45.45676803588867 0 Z" stroke="none" fill="#fff"/>
      </g>
    </g>
    <g id="Grupo_1113527" data-name="Grupo 1113527" transform="translate(844.927 2480.336)">
      <g id="Grupo_1113510" data-name="Grupo 1113510" transform="translate(0.779 70.872)">
        <path id="Trazado_917174" data-name="Trazado 917174" d="M7.5,206.593v3.169a.52.52,0,0,0,.52.52H29.925a.519.519,0,0,0,.472-.3l1.5-3.282h2.845l1.5,3.282a.52.52,0,0,0,.472.3H58.625a.52.52,0,0,0,.52-.52v-3.169Z" transform="translate(-7.5 -193.188)" fill="#fac600"/>
        <path id="Trazado_917175" data-name="Trazado 917175" d="M13.787,210.658v-3.065H7.5v3.065a.52.52,0,0,0,.52.52h6.287A.52.52,0,0,1,13.787,210.658Z" transform="translate(-7.5 -194.084)" fill="#e8b800"/>
        <g id="Grupo_1113498" data-name="Grupo 1113498">
          <path id="Trazado_917176" data-name="Trazado 917176" d="M59.144,81.741V78.113a.52.52,0,0,0-.52-.52H8.02a.52.52,0,0,0-.52.52v3.629a.516.516,0,0,0,.428.511,2.6,2.6,0,0,1,0,5.125.516.516,0,0,0-.428.511V91.1H59.144V87.888a.516.516,0,0,0-.428-.511,2.6,2.6,0,0,1,0-5.125A.516.516,0,0,0,59.144,81.741Z" transform="translate(-7.5 -77.593)" fill="#08b865"/>
        </g>
        <path id="Trazado_917177" data-name="Trazado 917177" d="M13.007,87.932a.312.312,0,0,1-.312-.312V81.074a.312.312,0,0,1,.312-.312h.779v-2.65a.52.52,0,0,1,.52-.52H8.02a.52.52,0,0,0-.52.52v3.629a.516.516,0,0,0,.428.511,2.6,2.6,0,0,1,0,5.125.516.516,0,0,0-.428.511V91.1h6.287V87.932h-.779Z" transform="translate(-7.5 -77.593)" fill="#09a755"/>
        <g id="Grupo_1113509" data-name="Grupo 1113509" transform="translate(5.196 3.169)">
          <g id="Grupo_1113499" data-name="Grupo 1113499" transform="translate(17.873)">
            <path id="Trazado_917178" data-name="Trazado 917178" d="M233.387,115.263h-3.575a.312.312,0,0,1-.312-.312V108.4a.312.312,0,0,1,.312-.312h3.575a.312.312,0,0,1,.312.312v6.546A.312.312,0,0,1,233.387,115.263Z" transform="translate(-229.5 -108.093)" fill="#596c76"/>
          </g>
          <g id="Grupo_1113500" data-name="Grupo 1113500" transform="translate(17.873)">
            <path id="Trazado_917179" data-name="Trazado 917179" d="M231.318,114.951V108.4a.312.312,0,0,1,.312-.312h-1.818a.312.312,0,0,0-.312.312v6.546a.312.312,0,0,0,.312.312h1.818A.312.312,0,0,1,231.318,114.951Z" transform="translate(-229.5 -108.093)" fill="#465a61"/>
          </g>
          <g id="Grupo_1113501" data-name="Grupo 1113501">
            <path id="Trazado_917180" data-name="Trazado 917180" d="M71.32,115.263H57.812a.312.312,0,0,1-.312-.312V108.4a.312.312,0,0,1,.312-.312H71.32a.312.312,0,0,1,.312.312v6.546A.312.312,0,0,1,71.32,115.263Z" transform="translate(-57.5 -108.093)" fill="#596c76"/>
          </g>
          <g id="Grupo_1113502" data-name="Grupo 1113502">
            <path id="Trazado_917181" data-name="Trazado 917181" d="M60.669,114.951V108.4a.312.312,0,0,1,.312-.312H57.812a.312.312,0,0,0-.312.312v6.546a.312.312,0,0,0,.312.312h3.169A.312.312,0,0,1,60.669,114.951Z" transform="translate(-57.5 -108.093)" fill="#465a61"/>
          </g>
          <g id="Grupo_1113503" data-name="Grupo 1113503" transform="translate(24.267)">
            <path id="Trazado_917182" data-name="Trazado 917182" d="M294.918,115.263h-3.575a.312.312,0,0,1-.312-.312V108.4a.312.312,0,0,1,.312-.312h3.575a.312.312,0,0,1,.312.312v6.546A.312.312,0,0,1,294.918,115.263Z" transform="translate(-291.031 -108.093)" fill="#596c76"/>
          </g>
          <g id="Grupo_1113504" data-name="Grupo 1113504" transform="translate(24.267)">
            <path id="Trazado_917183" data-name="Trazado 917183" d="M292.849,114.951V108.4a.312.312,0,0,1,.312-.312h-1.818a.312.312,0,0,0-.312.312v6.546a.312.312,0,0,0,.312.312h1.818A.312.312,0,0,1,292.849,114.951Z" transform="translate(-291.031 -108.093)" fill="#465a61"/>
          </g>
          <g id="Grupo_1113505" data-name="Grupo 1113505" transform="translate(30.66)">
            <path id="Trazado_917184" data-name="Trazado 917184" d="M356.448,115.263h-3.575a.312.312,0,0,1-.312-.312V108.4a.312.312,0,0,1,.312-.312h3.575a.312.312,0,0,1,.312.312v6.546A.312.312,0,0,1,356.448,115.263Z" transform="translate(-352.561 -108.093)" fill="#596c76"/>
          </g>
          <g id="Grupo_1113506" data-name="Grupo 1113506" transform="translate(30.66)">
            <path id="Trazado_917185" data-name="Trazado 917185" d="M354.379,114.951V108.4a.312.312,0,0,1,.312-.312h-1.818a.312.312,0,0,0-.312.312v6.546a.312.312,0,0,0,.312.312h1.818A.312.312,0,0,1,354.379,114.951Z" transform="translate(-352.561 -108.093)" fill="#465a61"/>
          </g>
          <g id="Grupo_1113507" data-name="Grupo 1113507" transform="translate(37.054)">
            <path id="Trazado_917186" data-name="Trazado 917186" d="M417.979,115.263H414.4a.312.312,0,0,1-.312-.312V108.4a.312.312,0,0,1,.312-.312h3.575a.312.312,0,0,1,.312.312v6.546A.312.312,0,0,1,417.979,115.263Z" transform="translate(-414.092 -108.093)" fill="#596c76"/>
          </g>
          <g id="Grupo_1113508" data-name="Grupo 1113508" transform="translate(37.054)">
            <path id="Trazado_917187" data-name="Trazado 917187" d="M415.91,114.951V108.4a.312.312,0,0,1,.312-.312H414.4a.312.312,0,0,0-.312.312v6.546a.312.312,0,0,0,.312.312h1.818A.312.312,0,0,1,415.91,114.951Z" transform="translate(-414.092 -108.093)" fill="#465a61"/>
          </g>
        </g>
      </g>
      <g id="Grupo_1113525" data-name="Grupo 1113525" transform="translate(0.779 90.856)">
        <g id="Grupo_1113524" data-name="Grupo 1113524">
          <g id="Grupo_1113511" data-name="Grupo 1113511" transform="translate(0 13.509)">
            <path id="Trazado_917188" data-name="Trazado 917188" d="M7.5,402.972a.52.52,0,0,0,.52.52H29.925a.519.519,0,0,0,.472-.3l1.5-3.282H7.5Z" transform="translate(-7.5 -399.907)" fill="#fac600"/>
            <path id="Trazado_917189" data-name="Trazado 917189" d="M271.191,403.189a.52.52,0,0,0,.472.3h21.905a.52.52,0,0,0,.52-.52v-3.065h-24.4Z" transform="translate(-242.444 -399.907)" fill="#fac600"/>
          </g>
          <path id="Trazado_917190" data-name="Trazado 917190" d="M13.787,402.972v-3.065H7.5v3.065a.52.52,0,0,0,.52.52h6.287A.52.52,0,0,1,13.787,402.972Z" transform="translate(-7.5 -386.398)" fill="#e8b800"/>
          <g id="Grupo_1113512" data-name="Grupo 1113512">
            <path id="Trazado_917191" data-name="Trazado 917191" d="M59.144,274.055v-3.629a.52.52,0,0,0-.52-.52H8.02a.52.52,0,0,0-.52.52v3.629a.516.516,0,0,0,.428.511,2.6,2.6,0,0,1,0,5.125.516.516,0,0,0-.428.511v3.213H59.144V280.2a.516.516,0,0,0-.428-.511,2.6,2.6,0,0,1,0-5.125A.516.516,0,0,0,59.144,274.055Z" transform="translate(-7.5 -269.907)" fill="#08b865"/>
          </g>
          <path id="Trazado_917192" data-name="Trazado 917192" d="M13.007,280.246a.312.312,0,0,1-.312-.312v-6.546a.312.312,0,0,1,.312-.312h.779v-2.65a.52.52,0,0,1,.52-.52H8.02a.52.52,0,0,0-.52.52v3.629a.516.516,0,0,0,.428.511,2.6,2.6,0,0,1,0,5.125.516.516,0,0,0-.428.511v3.213h6.287v-3.169h-.779Z" transform="translate(-7.5 -269.907)" fill="#09a755"/>
          <g id="Grupo_1113523" data-name="Grupo 1113523" transform="translate(5.196 3.169)">
            <g id="Grupo_1113513" data-name="Grupo 1113513" transform="translate(17.873)">
              <path id="Trazado_917193" data-name="Trazado 917193" d="M233.387,307.577h-3.575a.312.312,0,0,1-.312-.312v-6.547a.312.312,0,0,1,.312-.312h3.575a.312.312,0,0,1,.312.312v6.547A.312.312,0,0,1,233.387,307.577Z" transform="translate(-229.5 -300.407)" fill="#596c76"/>
            </g>
            <g id="Grupo_1113514" data-name="Grupo 1113514">
              <path id="Trazado_917194" data-name="Trazado 917194" d="M71.32,307.577H57.812a.312.312,0,0,1-.312-.312v-6.547a.312.312,0,0,1,.312-.312H71.32a.312.312,0,0,1,.312.312v6.547A.312.312,0,0,1,71.32,307.577Z" transform="translate(-57.5 -300.407)" fill="#596c76"/>
            </g>
            <g id="Grupo_1113515" data-name="Grupo 1113515">
              <path id="Trazado_917195" data-name="Trazado 917195" d="M60.669,307.265v-6.547a.312.312,0,0,1,.312-.312H57.812a.312.312,0,0,0-.312.312v6.547a.312.312,0,0,0,.312.312h3.169A.312.312,0,0,1,60.669,307.265Z" transform="translate(-57.5 -300.407)" fill="#465a61"/>
            </g>
            <g id="Grupo_1113516" data-name="Grupo 1113516" transform="translate(24.267)">
              <path id="Trazado_917196" data-name="Trazado 917196" d="M294.918,307.577h-3.575a.312.312,0,0,1-.312-.312v-6.547a.312.312,0,0,1,.312-.312h3.575a.312.312,0,0,1,.312.312v6.547A.312.312,0,0,1,294.918,307.577Z" transform="translate(-291.031 -300.407)" fill="#596c76"/>
            </g>
            <g id="Grupo_1113517" data-name="Grupo 1113517" transform="translate(30.66)">
              <path id="Trazado_917197" data-name="Trazado 917197" d="M356.448,307.577h-3.575a.312.312,0,0,1-.312-.312v-6.547a.312.312,0,0,1,.312-.312h3.575a.312.312,0,0,1,.312.312v6.547A.312.312,0,0,1,356.448,307.577Z" transform="translate(-352.561 -300.407)" fill="#596c76"/>
            </g>
            <g id="Grupo_1113518" data-name="Grupo 1113518" transform="translate(37.054)">
              <path id="Trazado_917198" data-name="Trazado 917198" d="M417.979,307.577H414.4a.312.312,0,0,1-.312-.312v-6.547a.312.312,0,0,1,.312-.312h3.575a.312.312,0,0,1,.312.312v6.547A.312.312,0,0,1,417.979,307.577Z" transform="translate(-414.092 -300.407)" fill="#596c76"/>
            </g>
            <g id="Grupo_1113519" data-name="Grupo 1113519" transform="translate(17.873)">
              <path id="Trazado_917199" data-name="Trazado 917199" d="M231.318,307.265v-6.547a.312.312,0,0,1,.312-.312h-1.818a.312.312,0,0,0-.312.312v6.547a.312.312,0,0,0,.312.312h1.818A.312.312,0,0,1,231.318,307.265Z" transform="translate(-229.5 -300.407)" fill="#465a61"/>
            </g>
            <g id="Grupo_1113520" data-name="Grupo 1113520" transform="translate(24.267)">
              <path id="Trazado_917200" data-name="Trazado 917200" d="M292.849,307.265v-6.547a.312.312,0,0,1,.312-.312h-1.818a.312.312,0,0,0-.312.312v6.547a.312.312,0,0,0,.312.312h1.818A.312.312,0,0,1,292.849,307.265Z" transform="translate(-291.031 -300.407)" fill="#465a61"/>
            </g>
            <g id="Grupo_1113521" data-name="Grupo 1113521" transform="translate(30.66)">
              <path id="Trazado_917201" data-name="Trazado 917201" d="M354.379,307.265v-6.547a.312.312,0,0,1,.312-.312h-1.818a.312.312,0,0,0-.312.312v6.547a.312.312,0,0,0,.312.312h1.818A.312.312,0,0,1,354.379,307.265Z" transform="translate(-352.561 -300.407)" fill="#465a61"/>
            </g>
            <g id="Grupo_1113522" data-name="Grupo 1113522" transform="translate(37.054)">
              <path id="Trazado_917202" data-name="Trazado 917202" d="M415.91,307.265v-6.547a.312.312,0,0,1,.312-.312H414.4a.312.312,0,0,0-.312.312v6.547a.312.312,0,0,0,.312.312h1.818A.312.312,0,0,1,415.91,307.265Z" transform="translate(-414.092 -300.407)" fill="#465a61"/>
            </g>
          </g>
        </g>
      </g>
      <g id="Grupo_1113526" data-name="Grupo 1113526" transform="translate(0 70.093)">
        <path id="Trazado_917203" data-name="Trazado 917203" d="M64.6,100.593H51.091A1.092,1.092,0,0,0,50,101.684v6.546a1.092,1.092,0,0,0,1.091,1.091H64.6a1.092,1.092,0,0,0,1.091-1.091v-6.546A1.092,1.092,0,0,0,64.6,100.593Zm-.468,7.17H51.559v-5.611H64.132Z" transform="translate(-44.804 -97.424)"/>
        <path id="Trazado_917204" data-name="Trazado 917204" d="M226.666,100.593h-3.575A1.092,1.092,0,0,0,222,101.684v6.546a1.092,1.092,0,0,0,1.091,1.091h3.575a1.092,1.092,0,0,0,1.091-1.091v-6.546A1.092,1.092,0,0,0,226.666,100.593Zm-.468,7.17h-2.64v-5.611h2.64Z" transform="translate(-198.931 -97.424)"/>
        <path id="Trazado_917205" data-name="Trazado 917205" d="M288.2,100.593h-3.575a1.092,1.092,0,0,0-1.091,1.091v6.546a1.092,1.092,0,0,0,1.091,1.091H288.2a1.092,1.092,0,0,0,1.091-1.091v-6.546A1.092,1.092,0,0,0,288.2,100.593Zm-.468,7.17h-2.64v-5.611h2.64Z" transform="translate(-254.068 -97.424)"/>
        <path id="Trazado_917206" data-name="Trazado 917206" d="M349.729,100.593h-3.575a1.092,1.092,0,0,0-1.091,1.091v6.546a1.092,1.092,0,0,0,1.091,1.091h3.575a1.092,1.092,0,0,0,1.091-1.091v-6.546A1.092,1.092,0,0,0,349.729,100.593Zm-.468,7.17h-2.64v-5.611h2.64Z" transform="translate(-309.206 -97.424)"/>
        <path id="Trazado_917207" data-name="Trazado 917207" d="M411.259,100.593h-3.575a1.092,1.092,0,0,0-1.091,1.091v6.546a1.092,1.092,0,0,0,1.091,1.091h3.575a1.092,1.092,0,0,0,1.091-1.091v-6.546A1.092,1.092,0,0,0,411.259,100.593Zm-.468,7.17h-2.64v-5.611h2.64Z" transform="translate(-364.342 -97.424)"/>
        <path id="Trazado_917208" data-name="Trazado 917208" d="M52.123,76.3a1.291,1.291,0,0,0,1.08-1.28V71.392a1.3,1.3,0,0,0-1.3-1.3H1.3a1.3,1.3,0,0,0-1.3,1.3v3.629A1.291,1.291,0,0,0,1.08,76.3a1.819,1.819,0,0,1,0,3.588A1.291,1.291,0,0,0,0,81.168v6.279a1.3,1.3,0,0,0,1.3,1.3H23.2a1.3,1.3,0,0,0,1.181-.758l1.294-2.827h1.844l1.294,2.827A1.3,1.3,0,0,0,30,88.745H51.9a1.3,1.3,0,0,0,1.3-1.3V81.168a1.291,1.291,0,0,0-1.08-1.28,1.819,1.819,0,0,1,0-3.588Zm-.478,10.886h-.883v-.468a.779.779,0,0,0-1.559,0v.468H47.644v-.468a.779.779,0,1,0-1.559,0v.468H44.526v-.468a.779.779,0,0,0-1.559,0v.468H41.409v-.468a.779.779,0,0,0-1.559,0v.468H38.292v-.468a.779.779,0,1,0-1.559,0v.468H35.174v-.468a.779.779,0,0,0-1.559,0v.468H32.057v-.468a.779.779,0,0,0-1.559,0v.468h-.333l-.928-2.026H51.644Zm0-5.805V83.6H17.561a.779.779,0,0,0,0,1.559h6.4l-.928,2.026H22.7v-.468a.779.779,0,0,0-1.559,0v.468H19.587v-.468a.779.779,0,1,0-1.559,0v.468H16.47v-.468a.779.779,0,1,0-1.559,0v.468H13.353v-.468a.779.779,0,1,0-1.559,0v.468H10.235v-.468a.779.779,0,1,0-1.559,0v.468H7.118v-.468a.779.779,0,0,0-1.559,0v.468H4v-.468a.779.779,0,0,0-1.559,0v.468H1.559V85.16H13.924a.779.779,0,1,0,0-1.559H1.559V81.381a3.378,3.378,0,0,0,0-6.573V71.652H51.644v3.156a3.378,3.378,0,0,0,0,6.573Z" transform="translate(0 -70.093)"/>
        <circle id="Elipse_11595" data-name="Elipse 11595" cx="0.779" cy="0.779" r="0.779" transform="translate(2.338 2.39)"/>
        <circle id="Elipse_11596" data-name="Elipse 11596" cx="0.779" cy="0.779" r="0.779" transform="translate(49.306 2.39)"/>
        <circle id="Elipse_11597" data-name="Elipse 11597" cx="0.779" cy="0.779" r="0.779" transform="translate(2.338 11.534)"/>
        <circle id="Elipse_11598" data-name="Elipse 11598" cx="0.779" cy="0.779" r="0.779" transform="translate(49.306 11.534)"/>
        <path id="Trazado_917209" data-name="Trazado 917209" d="M51.9,262.407h-4.52a.779.779,0,1,0,0,1.559h4.26v3.156a3.378,3.378,0,0,0,0,6.573v2.221H1.559V273.7a3.378,3.378,0,0,0,0-6.573v-3.156H43.747a.779.779,0,1,0,0-1.559H1.3a1.3,1.3,0,0,0-1.3,1.3v3.629a1.291,1.291,0,0,0,1.08,1.28,1.819,1.819,0,0,1,0,3.588A1.291,1.291,0,0,0,0,273.482v6.279a1.3,1.3,0,0,0,1.3,1.3H23.2a1.3,1.3,0,0,0,1.181-.758l1.294-2.827h1.844l1.294,2.827a1.3,1.3,0,0,0,1.181.758H51.9a1.3,1.3,0,0,0,1.3-1.3v-6.279a1.291,1.291,0,0,0-1.08-1.28,1.819,1.819,0,0,1,0-3.588,1.291,1.291,0,0,0,1.08-1.28v-3.629A1.3,1.3,0,0,0,51.9,262.407ZM23.038,279.5H22.7v-.468a.779.779,0,0,0-1.559,0v.468H19.587v-.468a.779.779,0,0,0-1.559,0v.468H16.47v-.468a.779.779,0,0,0-1.559,0v.468H13.353v-.468a.779.779,0,0,0-1.559,0v.468H10.235v-.468a.779.779,0,0,0-1.559,0v.468H7.118v-.468a.779.779,0,0,0-1.559,0v.468H4v-.468a.779.779,0,0,0-1.559,0v.468H1.559v-2.026H23.965Zm28.607,0h-.883v-.468a.779.779,0,0,0-1.559,0v.468H47.644v-.468a.779.779,0,0,0-1.559,0v.468H44.526v-.468a.779.779,0,0,0-1.559,0v.468H41.409v-.468a.779.779,0,0,0-1.559,0v.468H38.292v-.468a.779.779,0,0,0-1.559,0v.468H35.174v-.468a.779.779,0,0,0-1.559,0v.468H32.057v-.468a.779.779,0,0,0-1.559,0v.468h-.333l-.928-2.026H51.644Z" transform="translate(0 -242.423)"/>
        <path id="Trazado_917210" data-name="Trazado 917210" d="M51.091,292.907A1.092,1.092,0,0,0,50,294v6.546a1.092,1.092,0,0,0,1.091,1.091H64.6a1.092,1.092,0,0,0,1.091-1.091V294a1.092,1.092,0,0,0-1.091-1.091Zm13.041,7.17H51.559v-5.611H64.132Z" transform="translate(-44.804 -269.754)"/>
        <path id="Trazado_917211" data-name="Trazado 917211" d="M226.978,296.19a.779.779,0,0,0,.779-.779V294a1.092,1.092,0,0,0-1.091-1.091h-3.575A1.092,1.092,0,0,0,222,294v6.546a1.092,1.092,0,0,0,1.091,1.091h3.575a1.092,1.092,0,0,0,1.091-1.091v-1.5a.779.779,0,0,0-1.559,0v1.029h-2.64v-5.611h2.64v.945A.779.779,0,0,0,226.978,296.19Z" transform="translate(-198.931 -269.754)"/>
        <path id="Trazado_917212" data-name="Trazado 917212" d="M284.621,292.907A1.092,1.092,0,0,0,283.53,294v6.546a1.092,1.092,0,0,0,1.091,1.091H288.2a1.092,1.092,0,0,0,1.091-1.091V294a1.092,1.092,0,0,0-1.091-1.091Zm3.108,7.17h-2.64v-5.611h2.64Z" transform="translate(-254.068 -269.754)"/>
        <path id="Trazado_917213" data-name="Trazado 917213" d="M346.153,292.907A1.092,1.092,0,0,0,345.062,294v6.546a1.092,1.092,0,0,0,1.091,1.091h3.575a1.092,1.092,0,0,0,1.091-1.091V294a1.092,1.092,0,0,0-1.091-1.091Zm3.108,7.17h-2.64v-5.611h2.64Z" transform="translate(-309.206 -269.754)"/>
        <path id="Trazado_917214" data-name="Trazado 917214" d="M406.592,294v6.546a1.092,1.092,0,0,0,1.091,1.091h3.575a1.092,1.092,0,0,0,1.091-1.091V294a1.092,1.092,0,0,0-1.091-1.091h-3.575A1.092,1.092,0,0,0,406.592,294Zm1.559.468h2.64v5.611h-2.64Z" transform="translate(-364.342 -269.754)"/>
        <circle id="Elipse_11599" data-name="Elipse 11599" cx="0.779" cy="0.779" r="0.779" transform="translate(2.338 22.374)"/>
        <circle id="Elipse_11600" data-name="Elipse 11600" cx="0.779" cy="0.779" r="0.779" transform="translate(49.306 22.374)"/>
        <circle id="Elipse_11601" data-name="Elipse 11601" cx="0.779" cy="0.779" r="0.779" transform="translate(2.338 31.518)"/>
        <circle id="Elipse_11602" data-name="Elipse 11602" cx="0.779" cy="0.779" r="0.779" transform="translate(49.306 31.518)"/>
      </g>
    </g>
  </g>
</svg>
