<svg xmlns="http://www.w3.org/2000/svg" xmlns:xlink="http://www.w3.org/1999/xlink" width="108.914" height="108.914" viewBox="0 0 108.914 108.914">
  <defs>
    <filter id="Trazado_874925" x="0" y="0" width="108.914" height="108.914" filterUnits="userSpaceOnUse">
      <feOffset dy="3" input="SourceAlpha"/>
      <feGaussianBlur stdDeviation="3" result="blur"/>
      <feFlood flood-opacity="0.161"/>
      <feComposite operator="in" in2="blur"/>
      <feComposite in="SourceGraphic"/>
    </filter>
  </defs>
  <g id="Grupo_1113494" data-name="Grupo 1113494" transform="translate(-817.427 -2518.29)">
    <g transform="matrix(1, 0, 0, 1, 817.43, 2518.29)" filter="url(#Trazado_874925)">
      <g id="Trazado_874925-2" data-name="Trazado 874925" transform="translate(9 6)" fill="#de93ea" opacity="0.859">
        <path d="M 45.45676803588867 89.41407012939453 C 39.52198028564453 89.41407012939453 33.76551818847656 88.25206756591797 28.34726715087891 85.96034240722656 C 23.11311721801758 83.74648284912109 18.41204261779785 80.57682800292969 14.37464332580566 76.5394287109375 C 10.33724308013916 72.50202941894531 7.167593002319336 67.80095672607422 4.953730583190918 62.56679534912109 C 2.662005424499512 57.14855575561523 1.500005483627319 51.39208221435547 1.500005483627319 45.45729446411133 C 1.500005483627319 39.52198028564453 2.662005424499512 33.76551818847656 4.953730583190918 28.34726905822754 C 7.167593002319336 23.11310577392578 10.33724308013916 18.41203117370605 14.37464332580566 14.37464332580566 C 18.41204261779785 10.33724403381348 23.11311721801758 7.167593955993652 28.34726715087891 4.953731060028076 C 33.76551818847656 2.662006139755249 39.52198028564453 1.500006198883057 45.45676803588867 1.500006198883057 C 51.39155578613281 1.500006198883057 57.14802932739258 2.662006139755249 62.56626892089844 4.953731060028076 C 67.80043029785156 7.167593955993652 72.50150299072266 10.33724403381348 76.53890228271484 14.37464332580566 C 80.57630920410156 18.41203117370605 83.74595642089844 23.11310577392578 85.95981597900391 28.34726905822754 C 88.25154113769531 33.76551818847656 89.41354370117188 39.52198028564453 89.41354370117188 45.45676803588867 C 89.41354370117188 51.39208221435547 88.25154113769531 57.14855575561523 85.95981597900391 62.56679534912109 C 83.74595642089844 67.80095672607422 80.57630920410156 72.50202941894531 76.53890228271484 76.5394287109375 C 72.50150299072266 80.57682800292969 67.80043029785156 83.74648284912109 62.56626892089844 85.96034240722656 C 57.14802932739258 88.25206756591797 51.39155578613281 89.41407012939453 45.45676803588867 89.41407012939453 Z" stroke="none"/>
        <path d="M 45.45676803588867 3 C 39.72381210327148 3 34.1639404296875 4.12213134765625 28.93159484863281 6.335227966308594 C 23.87622833251953 8.473472595214844 19.33542633056641 11.53517150878906 15.43529510498047 15.435302734375 C 11.53517150878906 19.33543395996094 8.473464965820312 23.87622833251953 6.335227966308594 28.93160247802734 C 4.122123718261719 34.16394424438477 3 39.72381591796875 3 45.4572868347168 C 3 51.19024658203125 4.122123718261719 56.75011825561523 6.335227966308594 61.98246002197266 C 8.473464965820312 67.03782653808594 11.53517150878906 71.57862854003906 15.43529510498047 75.478759765625 C 19.33542633056641 79.37889099121094 23.87622833251953 82.44058990478516 28.93159484863281 84.57883453369141 C 34.1639404296875 86.79193115234375 39.72381210327148 87.9140625 45.45676803588867 87.9140625 C 51.18972396850586 87.9140625 56.74959564208984 86.79193115234375 61.98194122314453 84.57883453369141 C 67.03730773925781 82.44058990478516 71.57810974121094 79.37889099121094 75.47824096679688 75.478759765625 C 79.37837219238281 71.57862854003906 82.44007110595703 67.03782653808594 84.57830810546875 61.98246002197266 C 86.79141235351562 56.75011825561523 87.91353607177734 51.19024658203125 87.91353607177734 45.4567756652832 C 87.91353607177734 39.72381591796875 86.79141235351562 34.16394424438477 84.57830810546875 28.93160247802734 C 82.44007110595703 23.87622833251953 79.37837219238281 19.33543395996094 75.47824096679688 15.435302734375 C 71.57810974121094 11.53517150878906 67.03730773925781 8.473472595214844 61.98194122314453 6.335227966308594 C 56.74959564208984 4.12213134765625 51.18972396850586 3 45.45676803588867 3 M 45.45676803588867 0 C 70.56185150146484 0 90.91353607177734 20.35169219970703 90.91353607177734 45.4567756652832 L 90.91353607177734 45.4572868347168 C 90.91353607177734 70.5623779296875 70.56185150146484 90.9140625 45.45676803588867 90.9140625 C 20.3516845703125 90.9140625 0 70.5623779296875 0 45.4572868347168 L 0 45.4567756652832 C 0 20.35169219970703 20.3516845703125 0 45.45676803588867 0 Z" stroke="none" fill="#fff"/>
      </g>
    </g>
    <g id="Grupo_1113529" data-name="Grupo 1113529" transform="translate(844.724 2542.588)">
      <path id="Trazado_917215" data-name="Trazado 917215" d="M55.983,18.056A2.123,2.123,0,0,0,58.1,20.178h2.122V47.549H58.1a2.122,2.122,0,0,0,0,4.244h2.122v8.434H7.5V51.793H9.622a2.122,2.122,0,1,0,0-4.244H7.5V20.178H9.622a2.122,2.122,0,1,0,0-4.244H7.5V7.5H60.227v8.434H58.1A2.121,2.121,0,0,0,55.983,18.056Z" transform="translate(-6.704 -6.704)" fill="#00b7a0"/>
      <g id="Grupo_1113528" data-name="Grupo 1113528" transform="translate(3.554 3.289)">
        <circle id="Elipse_11603" data-name="Elipse 11603" cx="1.591" cy="1.591" r="1.591" fill="#caeefc"/>
        <circle id="Elipse_11604" data-name="Elipse 11604" cx="1.591" cy="1.591" r="1.591" transform="translate(44.027)" fill="#caeefc"/>
        <circle id="Elipse_11605" data-name="Elipse 11605" cx="1.591" cy="1.591" r="1.591" transform="translate(0 44.664)" fill="#caeefc"/>
        <circle id="Elipse_11606" data-name="Elipse 11606" cx="1.591" cy="1.591" r="1.591" transform="translate(44.027 44.664)" fill="#caeefc"/>
      </g>
      <rect id="Rectángulo_404868" data-name="Rectángulo 404868" width="33.496" height="33.496" transform="translate(10.766 10.766)" fill="#444b66"/>
      <rect id="Rectángulo_404869" data-name="Rectángulo 404869" width="3.589" height="33.496" transform="translate(40.673 10.766)" fill="#3d435c"/>
      <rect id="Rectángulo_404870" data-name="Rectángulo 404870" width="27.514" height="27.514" transform="translate(13.159 13.159)" fill="#cbdae0"/>
      <rect id="Rectángulo_404871" data-name="Rectángulo 404871" width="2.393" height="27.514" transform="translate(38.281 13.159)" fill="#a8b5ba"/>
      <path id="Trazado_917216" data-name="Trazado 917216" d="M157.77,314.287v4.369h4.772Z" transform="translate(-141.032 -280.944)" fill="#6e6b87"/>
      <rect id="Rectángulo_404872" data-name="Rectángulo 404872" width="28.114" height="3.183" transform="translate(13.102 0.796)" fill="#fad87c"/>
      <rect id="Rectángulo_404873" data-name="Rectángulo 404873" width="3.183" height="3.183" transform="translate(38.033 0.796)" fill="#febe40"/>
      <rect id="Rectángulo_404874" data-name="Rectángulo 404874" width="28.114" height="3.183" transform="translate(13.102 50.34)" fill="#fad87c"/>
      <rect id="Rectángulo_404875" data-name="Rectángulo 404875" width="3.183" height="3.183" transform="translate(38.033 50.34)" fill="#febe40"/>
      <path id="Trazado_917217" data-name="Trazado 917217" d="M51.4,10.026h2.122a.8.8,0,0,0,.8-.8V.8a.8.8,0,0,0-.8-.8H11.475a.8.8,0,1,0,0,1.591h.831V3.978a.8.8,0,0,0,.8.8H41.216a.8.8,0,0,0,.8-.8V1.591H52.727V8.434H51.4a2.917,2.917,0,0,0,0,5.835h1.326v25.78H51.4a2.917,2.917,0,0,0,0,5.835h1.326v6.843H42.012V50.34a.8.8,0,0,0-.8-.8H37.4a.8.8,0,0,0,0,1.591H40.42v1.591H13.9V51.135H33.949a.8.8,0,0,0,0-1.591H13.1a.8.8,0,0,0-.8.8v2.387H1.591V45.884H2.917a2.917,2.917,0,1,0,0-5.835H1.591V14.269H2.917a2.917,2.917,0,1,0,0-5.835H1.591V1.591H8.063A.8.8,0,0,0,8.063,0H.8A.8.8,0,0,0,0,.8V9.23a.8.8,0,0,0,.8.8H2.917a1.326,1.326,0,0,1,0,2.652H.8a.8.8,0,0,0-.8.8V40.845a.8.8,0,0,0,.8.8H2.917a1.326,1.326,0,0,1,0,2.652H.8a.8.8,0,0,0-.8.8v8.434a.8.8,0,0,0,.8.8H53.522a.8.8,0,0,0,.8-.8V45.088a.8.8,0,0,0-.8-.8H51.4a1.326,1.326,0,1,1,0-2.652h2.122a.8.8,0,0,0,.8-.8V13.473a.8.8,0,0,0-.8-.8H51.4a1.326,1.326,0,1,1,0-2.652ZM40.42,3.183H13.9V1.591H40.42Z" transform="translate(0)"/>
      <path id="Trazado_917218" data-name="Trazado 917218" d="M28.387,23.5a2.387,2.387,0,1,0,2.387,2.387A2.39,2.39,0,0,0,28.387,23.5Zm0,3.183a.8.8,0,1,1,.8-.8A.8.8,0,0,1,28.387,26.683Z" transform="translate(-23.242 -21.007)"/>
      <path id="Trazado_917219" data-name="Trazado 917219" d="M445.774,25.887a2.387,2.387,0,1,0-2.387,2.387A2.39,2.39,0,0,0,445.774,25.887Zm-3.183,0a.8.8,0,1,1,.8.8A.8.8,0,0,1,442.591,25.887Z" transform="translate(-394.214 -21.007)"/>
      <path id="Trazado_917220" data-name="Trazado 917220" d="M26,446.887a2.387,2.387,0,1,0,2.387-2.387A2.39,2.39,0,0,0,26,446.887Zm3.183,0a.8.8,0,1,1-.8-.8A.8.8,0,0,1,29.183,446.887Z" transform="translate(-23.242 -397.343)"/>
      <path id="Trazado_917221" data-name="Trazado 917221" d="M443.387,449.274A2.387,2.387,0,1,0,441,446.887,2.39,2.39,0,0,0,443.387,449.274Zm0-3.183a.8.8,0,1,1-.8.8A.8.8,0,0,1,443.387,446.091Z" transform="translate(-394.214 -397.343)"/>
      <path id="Trazado_917222" data-name="Trazado 917222" d="M119.3,147.675h27.583a.8.8,0,0,0,.8-.8V119.3a.8.8,0,0,0-.8-.8H126.262a.8.8,0,0,0,0,1.591h19.821v25.992H120.091V120.091H122.9a.8.8,0,0,0,0-1.591H119.3a.8.8,0,0,0-.8.8v27.583A.8.8,0,0,0,119.3,147.675Z" transform="translate(-105.928 -105.928)"/>
      <path id="Trazado_917223" data-name="Trazado 917223" d="M69.3,72.638a.8.8,0,0,0,0,1.591h1.326v1.733H69.3a.8.8,0,0,0,0,1.591h1.326v1.733H69.3a.8.8,0,0,0,0,1.591h1.326V82.61H69.3a.8.8,0,0,0,0,1.591h1.326v1.733H69.3a.8.8,0,0,0,0,1.591h1.326v1.733H69.3a.8.8,0,0,0,0,1.591h1.326v1.733H69.3a.8.8,0,0,0,0,1.591h1.326v1.733H69.3a.8.8,0,0,0,0,1.591h1.326v1.733H69.3a.8.8,0,0,0,0,1.591h1.326v1.733H69.3a.8.8,0,1,0,0,1.591h1.326v1.22a.8.8,0,0,0,.8.8h1.22v1.326a.8.8,0,0,0,1.591,0v-1.326h1.733v1.326a.8.8,0,0,0,1.591,0v-1.326h1.733v1.326a.8.8,0,0,0,1.591,0v-1.326H82.61v1.326a.8.8,0,0,0,1.591,0v-1.326h1.733v1.326a.8.8,0,0,0,1.591,0v-1.326h1.733v1.326a.8.8,0,0,0,1.591,0v-1.326h1.733v1.326a.8.8,0,0,0,1.591,0v-1.326h1.733v1.326a.8.8,0,0,0,1.591,0v-1.326h1.733v1.326a.8.8,0,0,0,1.591,0v-1.326h1.733v1.326a.8.8,0,1,0,1.591,0v-1.326h1.22a.8.8,0,0,0,.8-.8v-1.22h1.326a.8.8,0,1,0,0-1.591h-1.326v-1.733h1.326a.8.8,0,0,0,0-1.591h-1.326V97.5h1.326a.8.8,0,0,0,0-1.591h-1.326V94.174h1.326a.8.8,0,1,0,0-1.591h-1.326V90.85h1.326a.8.8,0,0,0,0-1.591h-1.326V87.526h1.326a.8.8,0,0,0,0-1.591h-1.326V84.2h1.326a.8.8,0,1,0,0-1.591h-1.326V80.877h1.326a.8.8,0,0,0,0-1.591h-1.326V77.553h1.326a.8.8,0,0,0,0-1.591h-1.326V74.229h1.326a.8.8,0,0,0,0-1.591h-1.326v-1.22a.8.8,0,0,0-.8-.8h-1.22V69.3a.8.8,0,0,0-1.591,0v1.326h-1.733V69.3a.8.8,0,0,0-1.591,0v1.326H97.5V69.3a.8.8,0,0,0-1.591,0v1.326H94.174V69.3a.8.8,0,0,0-1.591,0v1.326H90.85V69.3a.8.8,0,0,0-1.591,0v1.326H87.526V69.3a.8.8,0,0,0-1.591,0v1.326H84.2V69.3a.8.8,0,0,0-1.591,0v1.326H80.877V69.3a.8.8,0,0,0-1.591,0v1.326H77.553V69.3a.8.8,0,0,0-1.591,0v1.326H74.229V69.3a.8.8,0,0,0-1.591,0v1.326h-1.22a.8.8,0,0,0-.8.8v1.22Zm2.917-.424h32.357v32.357H72.213Z" transform="translate(-61.233 -61.233)"/>
      <path id="Trazado_917224" data-name="Trazado 917224" d="M219.471,148.441a.8.8,0,1,0,0-1.591h-2.758a.8.8,0,0,0-.8.8v4.88a.8.8,0,0,0,.8.8h2.758a.8.8,0,1,0,0-1.591h-1.963v-3.289Z" transform="translate(-193.01 -131.271)"/>
      <path id="Trazado_917225" data-name="Trazado 917225" d="M262.3,152.526v-1.611h1.963a.8.8,0,0,0,.8-.8v-2.474a.8.8,0,0,0-.8-.8H261.5a.8.8,0,0,0-.8.8v4.88a.8.8,0,1,0,1.591,0Zm0-4.084h1.167v.882H262.3Z" transform="translate(-233.049 -131.271)"/>
      <path id="Trazado_917226" data-name="Trazado 917226" d="M306.3,146.85a.8.8,0,0,0-.8.8v4.88a.8.8,0,0,0,.8.8h2.758a.8.8,0,0,0,.8-.8v-4.88a.8.8,0,1,0-1.591,0v4.084h-1.167v-4.084A.8.8,0,0,0,306.3,146.85Z" transform="translate(-273.089 -131.271)"/>
      <path id="Trazado_917227" data-name="Trazado 917227" d="M150.746,306.855a.8.8,0,0,0-.475.728v4.369a.8.8,0,0,0,.8.8h4.772a.8.8,0,0,0,.537-1.383L151.6,307A.8.8,0,0,0,150.746,306.855Zm1.116,2.536,1.929,1.766h-1.929Z" transform="translate(-134.329 -274.241)"/>
    </g>
  </g>
</svg>
